<?xml version="1.0" encoding="UTF-8"?>
<svg version="1.1" viewBox="0 0 2000 2000" width="1280" height="1280" xmlns="http://www.w3.org/2000/svg">
<path transform="translate(743,529)" d="m0 0h190l-6 8-8 10-13 16-11 14-12 15-11 14-9 11-8 10-11 14-8 10-11 14-8 10-11 14-18 22-8 10-7 9-4 5-11 14-6 7-9 12-6 7-11 14-6 7-10 13-6 7-1 2h-2l-2 4-12 16-8 10-11 14-18 22-20 25-11 14-13 16-11 14-10 13-4 5 2 4 6 8 10 13 13 16 16 20 11 14 9 11 13 16 8 10 11 14 9 11 14 18 12 15 11 14 11 13 10 13 11 14 13 16 22 28 14 17 11 14 13 16 11 14 8 10 11 14 14 17 7 9 20 25 11 14 10 12 6 8 3 5h-190l-20-25-11-14-13-16-22-28-12-15-11-14-11-13-13-17-13-16-11-14-13-16-10-13-13-16-11-14-13-16-10-13-10-12-11-14-14-17-11-14-9-12-4 1-42 42-10 8-19 13-14 8-15 7-21 7-24 6-12 2h-53l-36-9-21-8-16-8-16-10-13-10-14-12-12-12-13-17-9-14-9-16-8-19-7-23-4-20-1-10v-38l2-16 4-17 6-20 5-12 10-20 12-19 11-13 9-11 10-9 14-11 10-7 14-9 16-8 22-8 22-6 11-2h61l25 6 16 5 17 7 17 9 12 8 17 13 13 12 5 4v2l4 2v2h2v2h2l7 8 9 9 7 5 7-8 10-13 6-7 10-13 9-11 11-14 13-16 20-25 11-14 11-13 9-12 13-16 11-14 9-11 10-13 14-17 22-28 12-15 11-14 13-16 11-14 13-16zm-455 383-17 4-10 6-13 12-7 11-3 9-2 11v19l4 13 6 10 13 13 19 10 9 1 10 1 20-4 9-5 11-8 5-4 6-7 2-1v-2l4-2 20-20 4-8-6-8-35-35-15-10-10-4-10-2z" fill="#049CE8"/>
<path transform="translate(1300,606)" d="m0 0 4 4 10 13 9 11 14 17 13 17 13 16 20 25 11 14 13 16 10 13 13 16 8 10 11 14 32 40 11 14 9 11 4 1 42-42 14-11 11-8 16-9 14-7 20-8 24-6 10-2h63l24 6 13 4 20 8 15 8 14 9 14 11 13 11 4 3v2l4 2 11 14 12 17 12 21 10 25 6 20 2 14 1 15 1 1 1 14-1 21-1 2-3 25-7 24-9 21-14 24-14 19-12 13-13 12-19 14-16 10-19 9-24 8-22 5-14 2h-51l-28-7-21-7-29-14-13-9-13-10-8-7-40-40h-4l-2 4-10 13-10 12-10 13-11 14-9 11-12 15-11 14-9 11-7 9-9 11-11 14-8 10-11 14-11 13-13 17-9 11-8 10-9 11-13 16-4 5-2 4-4-2-7-8-11-14-8-10-13-16-11-14-9-11-10-13-14-17-9-12 1-4 11-13 13-17 9-11 13-16 13-17 10-12 7-9 11-14 13-16 11-14 12-15 11-14 9-11 12-15 9-11 11-14 7-9 10-13-1-8-9-11-10-13-13-16-11-14-9-11-12-15-9-11-10-13-9-11-11-14-12-15-11-14-9-11-12-15-11-14-9-11-13-16-8-10-4-6 2-6 7-7 6-8 16-20 14-18 9-11 13-16 10-13 12-15zm381 306-14 3-9 4-15 11-32 32-4 8 1 6 4 6 11 10 8 10 10 10 16 12 8 4 5 2h7l10 2 13-2 6-1 17-9 11-11 7-11 5-14v-23l-4-13-6-11-11-12-10-6-11-5-10-2z" fill="#049CE8"/>
<path transform="translate(1238,528)" d="m0 0 3 2-8 9-11 14-13 16-13 17-14 17-11 14-13 16-8 10-12 16-8 9-9 12-12 15-10 13-11 13-7 9-24 30-10 13-9 11-11 14-10 12-10 13-26 32-22 28-18 22-13 17-11 14-10 12-10 13-5 6-3 6 10 13 13 16 22 28 14 17 8 10 11 14 13 16 7 9 8 10 9 11 22 28 12 15 9 11 8 10 13 17 14 17 11 14 10 12 13 17 14 17 10 13 13 16 32 40 11 14 13 16 10 13 11 13 7 9 3 4v2l-190-1-11-14-11-13-8-11-10-12-13-17-12-14-10-13-13-16-11-14-12-15-11-14-13-16-10-13-11-13-8-10-11-15-13-15-13-17-14-17-13-16-9-12-11-13-10-13-13-16-7-9-12-15-11-14-11-13-12-16-11-13-7-9-6-7-4-7 6-9 12-14 13-17 9-11 13-16 8-10 9-12h2l2-5 7-8 8-11 9-11 8-10 2-3h2l2-4 10-13 9-11 7-9 20-25 11-14 11-13 10-14 8-9 13-17 10-12 24-30 12-16 9-10 10-13 14-18 11-13 11-14 13-16 10-13 14-17 4-5z" fill="#049CE8"/>
</svg>
