<?xml version="1.0" encoding="UTF-8" standalone="no"?>
<svg
   version="1.1"
   viewBox="0 0 2000 2000"
   width="1280"
   height="1280"
   id="svg3"
   xmlns="http://www.w3.org/2000/svg"
   xmlns:svg="http://www.w3.org/2000/svg">
  <defs
     id="defs3">
    <clipPath
       clipPathUnits="userSpaceOnUse"
       id="clipPath80">
      <path
         id="path81"
         style="fill:#ff0000;fill-opacity:1;fill-rule:nonzero;stroke:none;stroke-width:1.5625"
         d="m 1205.1605,605.99977 v 731.11263 h 690.8386 v -296.5515 c -0.8577,2.0352 -1.7179,4.0685 -2.5757,6.1035 -0.6914,1.6436 -1.3789,3.287 -2.0751,4.9286 -1.2442,2.9336 -2.7153,6.4157 -4.0863,9.2957 -2.4261,5.0969 -5.1286,10.0654 -7.7089,15.0848 -4.5597,8.9756 -9.2209,17.9036 -14.1843,26.6632 -2.983,5.216 -6.3058,10.2481 -10.016,14.978 -3.0615,3.9031 -5.0766,6.1157 -8.3405,9.8603 -1.4635,1.5899 -2.9071,3.1993 -4.3915,4.7699 -3.2406,3.4289 -5.1469,5.3319 -8.6578,8.4961 -3.9582,3.5672 -8.1339,6.8834 -12.2894,10.2142 -6.6517,5.0891 -13.3805,10.2947 -21.0297,13.8306 -1.7801,0.8229 -3.6276,1.4936 -5.4412,2.24 -5.8247,2.0749 -11.9113,3.1817 -18.0207,3.9947 -3.8097,0.507 -6.7204,0.6998 -10.4979,1.1841 -1.5583,0.1997 -3.1086,0.4544 -4.6632,0.6805 -7.5454,1.3192 -15.0179,3.0271 -22.5646,4.3396 -5.9144,1.0286 -6.7919,1.0874 -12.7686,1.8921 -8.2497,1.0497 -16.5055,2.1964 -24.8108,2.7191 -5.6575,0.3561 -6.6564,0.2643 -12.2713,0.2503 -11.2358,-0.1558 -22.3654,-1.7585 -33.4837,-3.2166 -9.6171,-1.3754 -19.3603,-1.7217 -28.9428,-3.3539 -2.0125,-0.3427 -4.0086,-0.7838 -6.0121,-1.1749 -12.9584,-3.2071 -25.97,-6.1974 -38.9222,-9.4299 -9.3767,-2.3871 -18.6803,-5.0795 -27.6916,-8.6243 -5.1987,-2.0451 -5.7898,-2.4153 -10.7849,-4.7516 -9.9688,-4.7853 -18.0653,-12.2859 -26.0559,-19.7509 -5.2775,-4.7052 -9.8982,-10.019 -13.9832,-15.7746 -1.3941,-2.3547 -3.13,-4.6171 -4.1534,-7.1808 -0.6299,-1.5777 -1.1092,-3.2127 -1.6632,-4.8187 -11.7687,-34.1212 49.6824,23.9871 35.3027,-9.1186 -2.2549,-5.1912 -0.4263,-0.8303 0.3479,0.1617 2.5767,3.7456 5.6365,7.0682 9.0393,10.0891 5.2209,4.8786 10.326,10.0698 16.7206,13.4186 1.238,0.5909 2.4615,1.2106 3.7139,1.77 9.0111,4.0241 18.5055,6.771 28.0488,9.2072 12.3806,3.0989 24.8305,5.915 37.204,9.0454 1.3935,0.2856 2.78,0.611 4.1808,0.8575 9.3886,1.6522 18.9749,1.8368 28.3938,3.2776 9.6136,1.2612 19.2298,2.7047 28.9426,2.9083 3.9049,0.038 5.0891,0.1158 9.0425,-0.1252 7.7043,-0.4691 15.3588,-1.5566 23.0102,-2.5238 5.0028,-0.6621 5.9567,-0.7375 10.9314,-1.5991 8.0414,-1.3927 15.9941,-3.2593 24.048,-4.5838 1.9297,-0.2741 3.8557,-0.5761 5.789,-0.8239 6.4103,-0.8213 12.9374,-1.0947 19.1896,-2.8595 0.7404,-0.2616 1.5018,-0.4773 2.2246,-0.7843 5.4866,-2.3292 10.0802,-6.3514 14.8377,-9.8297 5.9994,-4.8018 11.6309,-9.3794 16.9403,-14.972 1.2614,-1.3288 2.4885,-2.6921 3.7324,-4.0374 5.1761,-5.9107 10.3279,-11.898 14.1021,-18.8385 4.7241,-8.3225 9.1305,-16.8198 13.4704,-25.3479 2.3045,-4.4816 4.7467,-8.9156 6.9245,-13.4613 1.2391,-2.5861 2.5834,-5.7682 3.6926,-8.3832 0.6996,-1.6493 1.3897,-3.3047 2.0844,-4.9561 3.4766,-8.2484 6.9949,-16.4797 10.2172,-24.8321 2.4097,-5.971 4.5391,-12.0573 5.9755,-18.34411 1.8672,-7.95209 3.5961,-15.9828 4.2175,-24.14245 0.016,-1.14705 0.098,-2.29678 0.039,-3.44239 -0.4296,-8.41418 -2.9764,-16.91888 -4.8401,-25.09155 -2.023,-7.12898 -4.246,-14.20027 -6.7505,-21.17616 -4.6065,-12.83001 -2.594,-22.58756 2.356,-27.93578 -11.6986,0.16678 -22.1868,1.61474 -11.5388,14.42566 0.08,0.0966 0.305,0.32592 0.3327,0.37537 v 0.003 0.003 0.003 0 0 -0.003 c 0,-0.003 -0.016,-0.006 -0.022,-0.0125 -1.2106,-0.80317 -2.2981,-1.77759 -3.4514,-2.66114 -2.7335,-2.09395 -5.4756,-4.17059 -8.2428,-6.21947 -7.6071,-5.67279 -15.2316,-11.33962 -22.4519,-17.50489 -1.6397,-1.40018 -3.2395,-2.8482 -4.8584,-4.27247 -4.634,-4.1562 -8.9586,-8.633 -13.2415,-13.14392 -3.121,-3.28718 -4.245,-4.42354 -7.2114,-8.02611 -1.2104,-1.47029 -2.3536,-2.99203 -3.5307,-4.48914 -3.6438,-4.62314 -6.6072,-9.65892 -8.5879,-15.21606 -0.5693,-1.59787 -1.0643,-3.23261 -1.3701,-4.90112 -0.3641,-1.98625 -1.0481,-4.04761 -0.6349,-6.02418 0.2015,-0.96248 0.4588,-1.91023 0.7508,-2.84728 -4.9228,-2.86784 -9.8797,-5.68122 -14.9475,-8.28553 -4.1376,-2.1262 -8.1506,-4.0297 -12.3383,-6.04858 -13.2785,-6.65968 -27.6085,-10.78173 -41.7754,-15.06959 -10.0285,-2.87669 -20.0127,-6.0222 -30.2399,-8.14513 -2.3784,-0.49371 -4.7618,-0.9887 -7.1686,-1.31837 -2.4528,-0.33597 -4.9318,-0.45186 -7.3975,-0.67748 -15.0448,-0.64697 -30.204,-0.33433 -45.1537,1.61437 -2.5464,0.33192 -5.0719,0.80338 -7.6081,1.20545 -10.8522,2.1073 -21.7214,4.60466 -31.958,8.87146 -1.5659,0.6527 -3.0836,1.41247 -4.6266,2.11792 -4.8257,2.4517 -9.6332,5.04119 -13.925,8.36792 -1.5603,1.20942 -2.3825,2.03603 -3.8208,3.37525 -3.5603,3.2935 -6.2423,7.302 -8.9661,11.27319 -3.1192,4.6077 -5.6398,9.58229 -8.1421,14.54162 -2.0724,4.21902 -4.0802,8.46761 -6.0638,12.72889 -1.1859,2.63346 -2.2622,5.31603 -3.1647,8.05969 -11.2783,34.28644 -46.1877,22.54775 -34.5581,-11.62109 1.3678,-4.01869 2.8951,-7.98139 4.6753,-11.83777 2.1502,-4.60986 4.3153,-9.21436 6.5674,-13.77564 3.2426,-6.40922 6.5651,-12.80261 10.6323,-18.7378 1.9854,-2.88784 3.9503,-5.80753 6.131,-8.55407 2.5532,-3.21577 5.4006,-6.17532 8.3404,-9.03625 3.019,-2.71536 3.8912,-3.61518 7.1991,-6.10047 6.2577,-4.70163 13.1395,-8.50443 20.1537,-11.94152 2.2267,-0.98792 4.425,-2.04297 6.6803,-2.96326 12.5986,-5.14077 25.9018,-8.29783 39.2427,-10.79407 3.1434,-0.48086 6.2755,-1.04208 9.4298,-1.44348 8.7054,-1.10774 17.4727,-1.7462 26.2513,-1.9928 8.7787,-0.24659 17.5701,-0.10156 26.3245,0.36316 3.4802,0.37087 6.976,0.61501 10.4402,1.11389 2.9428,0.42381 5.855,1.04195 8.7645,1.65406 10.9941,2.31284 21.7466,5.6442 32.5288,8.75853 15.9736,4.84125 32.0789,9.61228 47.0489,17.12342 4.8153,2.32421 8.8447,4.23275 13.62,6.69861 8.4904,4.38422 16.7198,9.25244 24.9237,14.14489 2.0528,1.36557 4.1599,2.65472 6.1585,4.09852 2.2665,1.63739 4.4189,3.433 6.4392,5.36498 1.3326,0.49183 2.6589,1.06229 3.9825,1.7151 2.2226,1.09628 4.1761,2.66753 6.2651,4.00084 5.4883,4.5917 11.4407,8.91641 15.8663,14.62708 3.3822,4.36455 4.0342,6.0807 6.5062,10.79712 1.8505,4.16885 2.0135,4.34649 3.5371,8.45338 0.2207,0.59498 1.0823,3.21803 1.6876,4.72411 0.4585,0.43662 0.897,0.88925 1.3092,1.37025 1.94,2.26425 4.2339,4.48876 5.1178,7.33642 1.2625,4.06639 0.8782,8.46253 1.2207,12.71363 4.4631,3.30973 8.9145,6.65171 13.1164,10.28442 5.9884,5.17708 6.9992,7.98853 5.1728,9.51537 1.9176,1.20592 3.7908,2.81977 5.545,4.86755 V 605.99977 Z m 470.9412,279.95909 c 4.4283,-0.15031 8.8652,-0.12969 13.2813,0.28077 8.5789,0.86403 17.1168,2.15856 25.3906,4.66614 10.1359,3.13492 20.1445,6.71028 29.7883,11.15721 1.5425,0.78707 3.099,1.54304 4.6262,2.35902 5.3547,2.86053 10.4563,6.18416 15.558,9.4635 10.2173,6.56769 14.6247,14.35345 14.8255,21.03881 6.6628,4.32633 10.5697,14.61936 6.2836,29.3213 -1.5383,5.27552 -3.2985,10.47525 -5.6154,15.46936 -1.9203,4.12591 -2.5692,5.76623 -4.9378,9.78087 -3.0614,5.18985 -6.9379,9.84218 -10.6168,14.59046 -3.13,3.7179 -4.1883,5.2192 -7.8768,8.5541 -4.9539,4.4797 -10.7328,7.8311 -16.2964,11.4654 -1.7415,1.1783 -6.36,4.3297 -7.9528,5.2613 -6.199,3.626 -12.9865,5.8826 -19.8334,7.9345 -5.7389,1.5231 -6.9942,2.0534 -12.982,2.8138 -9.5272,1.2097 -19.1379,0.6568 -28.6836,0.046 -15.0454,-0.9599 -30.33,-2.1702 -44.3664,-8.1451 -2.2622,-1.1447 -4.5772,-2.1909 -6.7872,-3.4332 -2.1371,-1.2013 -4.2032,-2.528 -6.2408,-3.891 -2.3047,-1.5415 -4.5913,-3.1141 -6.778,-4.8188 -5.164,-4.0257 -9.7647,-8.699 -13.9526,-13.7176 -3.9114,-4.9129 -8.0497,-9.91555 -10.318,-15.87216 -2.3069,-6.05923 -2.6628,-10.9328 -2.2217,-17.19666 0.1715,-1.43978 0.3051,-2.88367 0.5157,-4.31823 1.1741,-7.98627 3.3468,-15.85142 6.714,-23.19336 0.7892,-1.53144 1.5379,-3.08303 2.3681,-4.59289 1.1387,-2.07155 3.8106,-6.39808 5.0445,-8.33741 2.1049,-3.30853 4.2317,-6.57204 6.662,-9.65881 0.8794,-1.11695 1.8907,-2.12386 2.835,-3.18605 2.9541,-2.99461 5.9105,-6.02423 9.1797,-8.68225 3.2924,-2.67623 3.5647,-2.76245 6.6011,-4.66612 0.8364,-0.52449 1.6742,-1.04511 2.5114,-1.56861 5.8839,-3.65463 11.9325,-7.05169 18.2191,-9.97009 1.3658,-0.59379 2.717,-1.22613 4.0986,-1.78224 6.2433,-2.51308 12.7984,-4.21073 19.2962,-5.90514 1.6339,-0.27978 3.261,-0.61803 4.9043,-0.83923 1.3959,-0.18799 5.4176,-0.38185 6.7565,-0.42725 z m 0.9003,36.44716 c -0.073,0.003 -0.1453,0.006 -0.2167,0.009 -1.7559,0.60294 -3.8323,1.037 -6.2317,1.24208 -0.4091,0.035 -0.8205,-0.0141 -1.233,-0.058 -1.9826,0.5602 -3.9651,1.12797 -5.9264,1.75477 -1.7283,0.74423 -3.4104,1.60326 -5.0904,2.45056 -0.3768,0.22345 -0.7569,0.44025 -1.1291,0.67139 -0.6313,0.39211 -2.0881,1.36236 -2.6674,1.74561 -1.2703,0.84095 -2.5481,1.66112 -3.7779,2.56042 -2.1524,1.82686 -4.3313,3.62133 -6.4972,5.43213 -2.4938,2.11604 -4.9366,4.24168 -7.1594,6.64368 -2.3716,2.70214 -4.7848,5.368 -7.0466,8.16344 -2.6189,3.50348 -5.6682,6.64017 -8.612,9.86328 -0.8023,0.97103 -1.6737,1.8815 -2.5483,2.79236 -1.1503,3.71078 -1.8732,7.5625 -2.2307,11.42274 0.038,-0.0741 0.069,-0.1161 0.092,-0.13125 0.027,0.043 0.033,0.18915 0.022,0.38757 0.1719,0.14297 0.345,0.28525 0.5189,0.42725 1.4388,1.17397 1.5428,1.22736 3.0364,2.3468 2.9055,2.2118 5.9644,4.22927 8.7922,6.54297 0.5889,0.48176 1.1547,0.98923 1.7335,1.48316 2.9675,2.61215 5.2681,5.83015 7.547,9.03625 0.2214,0.12687 0.4442,0.25293 0.6683,0.37537 1.2012,0.65613 2.4798,1.15734 3.7201,1.73645 1.2136,0.3825 2.4091,0.82705 3.6406,1.14755 8.7616,2.2798 17.9296,2.762 26.9227,3.3233 7.6658,0.4062 15.408,1.1577 23.053,0.034 2.892,-0.4255 3.8415,-0.8153 6.5612,-1.6388 3.4811,-1.2272 7.1335,-2.0795 10.4463,-3.75361 0.8139,-0.41134 2.6653,-1.7983 3.3203,-2.24916 1.1072,-0.76239 2.2281,-1.50789 3.3415,-2.26134 2.7005,-1.81216 5.4877,-3.48884 8.1941,-5.29175 2.1991,-1.4652 3.3808,-2.18316 5.1422,-3.93983 0.9764,-0.97376 2.328,-2.75687 3.1433,-3.78722 1.6267,-2.15886 3.3645,-4.2564 4.9804,-6.43615 0.047,-0.21292 0.094,-0.42514 0.1407,-0.63781 0.7986,-3.05507 1.0347,-6.15058 1.1047,-9.29261 0.064,-2.78022 -0.4246,-5.52846 -1.0285,-8.2306 -0.8215,-3.20508 -2.4484,-6.13433 -3.9337,-9.06983 -1.098,-2.09728 -2.2836,-4.16839 -3.7353,-6.04553 -0.7083,-0.91567 -1.2561,-1.46704 -2.0447,-2.31628 -1.03,-1.0498 -2.04,-2.13234 -3.1983,-3.04565 -1.1603,-0.91507 -2.4591,-1.65472 -3.7202,-2.41699 -0.1468,-0.0905 -0.2925,-0.17933 -0.4393,-0.26856 -6.755,-2.81902 -13.6718,-5.22863 -20.6666,-7.3822 -5.9428,-1.7586 -12.067,-2.63186 -18.2189,-3.22266 -2.9061,-0.2657 -5.8253,-0.23478 -8.7372,-0.11594 z" />
    </clipPath>
    <clipPath
       clipPathUnits="userSpaceOnUse"
       id="clipPath83">
      <path
         id="path84"
         style="fill:#ff0000;fill-opacity:1;fill-rule:nonzero;stroke:none"
         d="M 771.74414,463.68555 V 834.19922 H 1213.1426 V 666.66211 c -0.4505,1.06768 -0.9015,2.13536 -1.3516,3.20312 -0.4425,1.05191 -0.8825,2.10368 -1.3281,3.1543 -0.7964,1.87751 -1.7379,4.10602 -2.6152,5.94922 -1.5527,3.26202 -3.2824,6.44188 -4.9336,9.6543 -2.9184,5.74438 -5.9015,11.45831 -9.0782,17.06445 -1.9089,3.33824 -4.0357,6.5588 -6.4101,9.58594 -1.9594,2.49798 -3.249,3.914 -5.3379,6.31054 -0.9366,1.01754 -1.8606,2.04755 -2.8106,3.05274 -2.0739,2.19449 -3.294,3.41241 -5.541,5.4375 -2.5332,2.28301 -5.2058,4.4054 -7.8652,6.53711 -4.2571,3.25702 -8.5634,6.58858 -13.459,8.85156 -1.1393,0.52666 -2.3217,0.9559 -3.4824,1.43359 -3.7277,1.32794 -7.6232,2.03634 -11.5332,2.55664 -2.4382,0.32448 -4.3012,0.44787 -6.7188,0.75782 -0.9971,0.12781 -1.9895,0.29084 -2.9843,0.43554 -4.8291,0.84429 -9.6115,1.93735 -14.4414,2.77735 -3.7853,0.6583 -4.3466,0.69593 -8.1719,1.21094 -5.2797,0.6718 -10.5634,1.4057 -15.8789,1.74023 -3.6208,0.2279 -4.2602,0.16912 -7.8535,0.16016 -7.191,-0.0997 -14.314,-1.12541 -21.4297,-2.0586 -6.1548,-0.88025 -12.3906,-1.10187 -18.5235,-2.14648 -1.2879,-0.21933 -2.5654,-0.50164 -3.8476,-0.75196 -8.2934,-2.05254 -16.621,-3.96635 -24.9102,-6.03515 -6.0012,-1.52775 -11.9553,-3.25086 -17.72264,-5.51953 -3.32717,-1.30887 -3.70548,-1.54579 -6.90234,-3.04102 -6.38003,-3.06259 -11.5618,-7.86302 -16.67578,-12.64062 -3.3776,-3.01133 -6.33482,-6.41212 -8.94922,-10.09571 -0.89223,-1.507 -2.00323,-2.95493 -2.6582,-4.5957 -0.40314,-1.00973 -0.7099,-2.05614 -1.06446,-3.08398 -7.53197,-21.83757 31.79676,15.35171 22.59375,-5.83594 -1.44313,-3.32237 -0.27283,-0.53137 0.22266,0.10351 1.64909,2.39719 3.60737,4.52366 5.78515,6.45704 3.34138,3.1223 6.60863,6.44465 10.70118,8.58789 0.79232,0.37817 1.57524,0.77479 2.377,1.13281 5.7671,2.57542 11.8434,4.33341 17.9511,5.89258 7.9236,1.98329 15.8915,3.7856 23.8106,5.78906 0.8918,0.18278 1.7792,0.39107 2.6757,0.54883 6.0086,1.05741 12.144,1.17554 18.1719,2.09765 6.1529,0.80717 12.3071,1.73103 18.5235,1.86133 2.4989,0.0245 3.2569,0.074 5.7871,-0.0801 4.9307,-0.30022 9.8296,-0.99622 14.7265,-1.61523 3.2018,-0.42374 3.8123,-0.47201 6.9961,-1.02344 5.1465,-0.89133 10.2362,-2.08591 15.3907,-2.93359 1.235,-0.17543 2.4677,-0.36875 3.705,-0.52735 4.1026,-0.52563 8.28,-0.7006 12.2813,-1.83007 0.474,-0.16743 0.961,-0.30548 1.4238,-0.50196 3.5113,-1.49068 6.4513,-4.0649 9.4961,-6.29101 3.8396,-3.07315 7.4438,-6.00277 10.8418,-9.58203 0.8073,-0.85044 1.5926,-1.723 2.3887,-2.58399 3.3128,-3.78285 6.6099,-7.61472 9.0254,-12.05664 3.0234,-5.3264 5.8435,-10.76466 8.6211,-16.22266 1.4748,-2.86821 3.0377,-5.70598 4.4316,-8.61523 0.793,-1.6551 1.6535,-3.69163 2.3633,-5.36523 0.4477,-1.05556 0.8894,-2.11498 1.334,-3.17188 2.225,-5.27897 4.4768,-10.54704 6.539,-15.89258 1.5422,-3.82144 2.9049,-7.71667 3.8242,-11.74023 1.1952,-5.08934 2.3017,-10.22899 2.6993,-15.45117 0.01,-0.73411 0.063,-1.46994 0.025,-2.20313 -0.2751,-5.38507 -1.9049,-10.82808 -3.0977,-16.05859 -1.2947,-4.56255 -2.7174,-9.08817 -4.3203,-13.55274 -2.9482,-8.21123 -1.6603,-14.45604 1.5078,-17.8789 -7.4872,0.10673 -14.1996,1.03339 -7.3848,9.23242 0.051,0.0618 0.1952,0.20859 0.2129,0.24023 v 0.002 0.002 0.002 0 0 -0.002 c 0,-0.002 -0.01,-0.004 -0.014,-0.008 -0.7748,-0.51403 -1.4708,-1.13766 -2.2089,-1.70313 -1.7494,-1.34013 -3.5044,-2.66918 -5.2754,-3.98047 -4.8685,-3.63058 -9.7482,-7.25735 -14.3692,-11.20312 -1.0494,-0.89612 -2.0733,-1.82284 -3.1093,-2.73438 -2.9658,-2.65996 -5.7336,-5.52512 -8.4747,-8.41211 -1.9975,-2.1038 -2.7168,-2.83107 -4.6152,-5.13671 -0.7748,-0.94099 -1.5063,-1.9149 -2.2598,-2.87305 -2.3319,-2.9588 -4.2285,-6.18171 -5.496,-9.73828 -0.3645,-1.02264 -0.6813,-2.06887 -0.877,-3.13672 -0.233,-1.2712 -0.6708,-2.59047 -0.4063,-3.85547 0.1289,-0.61599 0.2936,-1.22255 0.4805,-1.82227 -3.1506,-1.83541 -6.3229,-3.63597 -9.5664,-5.30273 -2.6481,-1.36077 -5.2164,-2.57901 -7.8965,-3.87109 -8.4983,-4.2622 -17.6696,-6.90031 -26.7363,-9.64454 -6.4182,-1.84108 -12.8081,-3.85421 -19.3535,-5.21289 -1.5222,-0.31597 -3.0476,-0.63276 -4.5879,-0.84375 -1.5698,-0.21502 -3.1565,-0.28919 -4.7344,-0.43359 -9.6287,-0.41406 -19.3307,-0.21397 -28.8984,1.0332 -1.6297,0.21243 -3.246,0.51416 -4.8692,0.77149 -6.9454,1.34868 -13.9017,2.94699 -20.4531,5.67773 -1.0022,0.41773 -1.9735,0.90398 -2.9609,1.35547 -3.0886,1.56909 -6.1654,3.22636 -8.9121,5.35547 -0.9986,0.77403 -1.5248,1.30306 -2.4453,2.16016 -2.27864,2.10784 -3.9951,4.67328 -5.73833,7.21484 -1.99629,2.94893 -3.60946,6.13267 -5.21094,9.30664 -1.32633,2.70017 -2.61135,5.41927 -3.88085,8.14649 -0.75898,1.68541 -1.4478,3.40226 -2.0254,5.1582 -7.21811,21.94332 -29.56013,14.43056 -22.11718,-7.4375 0.87539,-2.57196 1.85286,-5.10809 2.99218,-7.57617 1.37613,-2.95031 2.76179,-5.89719 4.20313,-8.81641 2.07526,-4.10189 4.20168,-8.19367 6.80469,-11.99219 1.27065,-1.84822 2.52818,-3.71681 3.92382,-5.47461 1.63405,-2.05808 3.45642,-3.9522 5.3379,-5.7832 1.93216,-1.73783 2.49036,-2.3137 4.60742,-3.9043 4.00493,-3.00904 8.40928,-5.44283 12.89846,-7.64258 1.425,-0.63226 2.8319,-1.30749 4.2754,-1.89648 8.0631,-3.29009 16.577,-5.31061 25.1152,-6.9082 2.0118,-0.30775 4.0163,-0.66693 6.0352,-0.92383 5.5713,-0.70895 11.1824,-1.11757 16.8007,-1.27539 5.6184,-0.15782 11.2449,-0.065 16.8477,0.23242 2.2273,0.23736 4.4646,0.39361 6.6816,0.71289 1.8835,0.27124 3.7473,0.66685 5.6094,1.05859 7.0362,1.48023 13.9178,3.6123 20.8184,5.60547 10.2231,3.0984 20.5304,6.15186 30.1113,10.95899 3.0817,1.48749 5.6605,2.70896 8.7168,4.28711 5.4339,2.8059 10.7007,5.92156 15.9512,9.05273 1.3138,0.87396 2.6623,1.69902 3.9414,2.62305 1.4506,1.04793 2.8281,2.19712 4.1211,3.43359 0.8529,0.31477 1.7017,0.67986 2.5488,1.09766 1.4225,0.70162 2.6727,1.70723 4.0098,2.56055 3.5124,2.93868 7.3219,5.70649 10.1543,9.36132 2.1646,2.79331 2.5819,3.89164 4.164,6.91016 1.1843,2.66806 1.2887,2.78175 2.2637,5.41016 0.1413,0.38079 0.6927,2.05954 1.0801,3.02343 0.2933,0.27944 0.5741,0.56912 0.8379,0.87696 1.2416,1.44912 2.7097,2.87281 3.2753,4.69531 0.808,2.60249 0.562,5.41601 0.7813,8.13672 2.8564,2.11823 5.7053,4.2571 8.3945,6.58203 3.8327,3.3134 4.4796,5.11268 3.3106,6.08984 1.1198,0.70423 2.2158,1.6258 3.2519,2.77735 v -105.9375 z m 300.96096,103.32812 c 2.8341,-0.0962 5.6739,-0.083 8.5,0.17969 5.4906,0.55298 10.9548,1.38149 16.25,2.98633 6.487,2.00637 12.8927,4.29456 19.0644,7.14062 0.9872,0.5037 1.9835,0.98754 2.961,1.50977 3.4267,1.83074 6.6919,3.95786 9.957,6.05664 6.5391,4.20331 9.36,9.1862 9.4883,13.46484 4.2642,2.76883 6.7646,9.35639 4.0215,18.76563 -0.9844,3.37633 -2.1112,6.70416 -3.5938,9.90039 -1.2292,2.64057 -1.6443,3.69038 -3.1601,6.25976 -1.9595,3.32148 -4.4404,6.29899 -6.795,9.33789 -2.0032,2.37946 -2.6807,3.34028 -5.041,5.47461 -3.1705,2.86701 -6.869,5.01194 -10.4297,7.33789 -1.1148,0.75412 -4.0704,2.77097 -5.0898,3.36719 -3.9674,2.32064 -8.3114,3.76491 -12.6934,5.07813 -3.6729,0.97478 -4.4764,1.31412 -8.3086,1.80078 -6.0974,0.77421 -12.2481,0.42076 -18.3574,0.0293 -9.629,-0.61432 -19.4111,-1.38895 -28.3945,-5.21289 -1.4478,-0.7326 -2.9294,-1.40219 -4.3438,-2.19726 -1.3676,-0.76883 -2.69,-1.61792 -3.9941,-2.49024 -1.475,-0.98656 -2.9384,-1.99297 -4.3379,-3.08398 -3.305,-2.57645 -6.2494,-5.56739 -8.9297,-8.7793 -2.5033,-3.14425 -5.1518,-6.34596 -6.6035,-10.1582 -1.4764,-3.87791 -1.7042,-6.99699 -1.4219,-11.00586 0.1098,-0.92146 0.1952,-1.84555 0.3301,-2.76367 0.7512,-5.11121 2.142,-10.14491 4.2969,-14.84375 0.5053,-0.98012 0.9843,-1.97314 1.5156,-2.93945 0.7288,-1.32579 2.4388,-4.09476 3.2285,-5.33594 1.3472,-2.11745 2.7084,-4.20611 4.2637,-6.18164 0.5628,-0.71485 1.2098,-1.35929 1.8144,-2.03906 1.8904,-1.91657 3.7825,-3.85552 5.875,-5.55665 2.1069,-1.71279 2.2814,-1.76797 4.2247,-2.98632 0.5353,-0.33567 1.0716,-0.66887 1.6074,-1.00391 3.7657,-2.33896 7.6368,-4.51308 11.6601,-6.38086 0.8741,-0.38002 1.7389,-0.78471 2.6231,-1.14062 3.9957,-1.60838 8.191,-2.69488 12.3496,-3.7793 1.0457,-0.17905 2.0872,-0.39554 3.1387,-0.53711 0.8936,-0.12031 3.4673,-0.24438 4.3242,-0.27344 z m 0.5761,23.32617 c -0.046,0.002 -0.092,0.004 -0.1386,0.006 -1.1238,0.38589 -2.4527,0.66369 -3.9883,0.79492 -0.2619,0.0224 -0.5253,-0.009 -0.7891,-0.0371 -1.2667,0.35784 -2.5342,0.72083 -3.7871,1.12109 -1.1084,0.477 -2.1862,1.02691 -3.2636,1.57031 -0.2412,0.143 -0.4845,0.28177 -0.7227,0.42969 -0.404,0.25096 -1.3365,0.87191 -1.707,1.11719 -0.813,0.5382 -1.6309,1.06312 -2.418,1.63867 -1.3775,1.1692 -2.772,2.31766 -4.1582,3.47656 -1.596,1.35427 -3.1594,2.71469 -4.582,4.25195 -1.5178,1.72938 -3.0623,3.43552 -4.5098,5.22461 -1.676,2.24223 -3.6278,4.2497 -5.5117,6.3125 -0.5136,0.62165 -1.0732,1.20593 -1.6328,1.78907 -0.7363,2.37451 -1.197,4.83848 -1.4258,7.30859 0.024,-0.0474 0.044,-0.0743 0.059,-0.084 0.017,0.0275 0.019,0.12075 0.012,0.24804 0.1101,0.0916 0.2225,0.18248 0.334,0.27344 0.9208,0.75134 0.9874,0.78552 1.9433,1.50195 1.8595,1.41555 3.8172,2.70672 5.627,4.1875 0.3769,0.30833 0.739,0.63311 1.1094,0.94922 1.8988,1.67147 3.3719,3.73168 4.83,5.7832 0.142,0.0813 0.2842,0.16178 0.4278,0.24024 0.7688,0.41992 1.5871,0.7407 2.3808,1.11133 0.7768,0.2448 1.5418,0.52925 2.3301,0.73437 5.6074,1.45914 11.4749,1.76779 17.2305,2.12696 4.9062,0.26003 9.8612,0.74157 14.7539,0.0215 1.851,-0.27238 2.4586,-0.52179 4.1992,-1.04883 2.2279,-0.78553 4.5654,-1.33094 6.6856,-2.40234 0.521,-0.26327 1.7059,-1.15091 2.125,-1.43945 0.7087,-0.48794 1.426,-0.96506 2.1386,-1.44727 1.7282,-1.15978 3.5122,-2.23286 5.2442,-3.38672 1.4076,-0.93773 2.1639,-1.39721 3.291,-2.52148 0.6249,-0.62324 1.49,-1.76441 2.0117,-2.42383 1.0414,-1.38192 2.1532,-2.72383 3.1875,-4.11914 0.03,-0.13587 0.06,-0.27248 0.09,-0.40821 0.5112,-1.95521 0.6623,-3.93634 0.7071,-5.94726 0.041,-1.77932 -0.2716,-3.5382 -0.6582,-5.26758 -0.5258,-2.05124 -1.567,-3.92597 -2.5176,-5.80469 -0.7028,-1.34226 -1.4615,-2.66777 -2.3906,-3.86914 -0.4532,-0.58605 -0.8039,-0.93891 -1.3086,-1.48242 -0.6593,-0.67187 -1.3056,-1.36471 -2.0469,-1.94922 -0.7426,-0.58564 -1.5739,-1.05903 -2.3809,-1.54687 -0.094,-0.0582 -0.1886,-0.11635 -0.2832,-0.17383 -4.3227,-1.80389 -8.7484,-3.34454 -13.2246,-4.72266 -3.8034,-1.1255 -7.7229,-1.68439 -11.6601,-2.0625 -1.8599,-0.17005 -3.7282,-0.15028 -5.5918,-0.0742 z" />
    </clipPath>
    <clipPath
       clipPathUnits="userSpaceOnUse"
       id="clipPath86">
      <path
         id="path87"
         style="fill:#ff0000;fill-opacity:1;fill-rule:nonzero;stroke:none"
         d="M 771.74414,463.68555 V 834.19922 H 1213.1426 V 666.66211 c -0.4505,1.06768 -0.9015,2.13536 -1.3516,3.20312 -0.4425,1.05191 -0.8825,2.10368 -1.3281,3.1543 -0.7964,1.87751 -1.7379,4.10602 -2.6152,5.94922 -1.5527,3.26202 -3.2824,6.44188 -4.9336,9.6543 -2.9184,5.74438 -5.9015,11.45831 -9.0782,17.06445 -1.9089,3.33824 -4.0357,6.5588 -6.4101,9.58594 -1.9594,2.49798 -3.249,3.914 -5.3379,6.31054 -0.9366,1.01754 -1.8606,2.04755 -2.8106,3.05274 -2.0739,2.19449 -3.294,3.41241 -5.541,5.4375 -2.5332,2.28301 -5.2058,4.4054 -7.8652,6.53711 -4.2571,3.25702 -8.5634,6.58858 -13.459,8.85156 -1.1393,0.52666 -2.3217,0.9559 -3.4824,1.43359 -3.7277,1.32794 -7.6232,2.03634 -11.5332,2.55664 -2.4382,0.32448 -4.3012,0.44787 -6.7188,0.75782 -0.9971,0.12781 -1.9895,0.29084 -2.9843,0.43554 -4.8291,0.84429 -9.6115,1.93735 -14.4414,2.77735 -3.7853,0.6583 -4.3466,0.69593 -8.1719,1.21094 -5.2797,0.6718 -10.5634,1.4057 -15.8789,1.74023 -3.6208,0.2279 -4.2602,0.16912 -7.8535,0.16016 -7.191,-0.0997 -14.314,-1.12541 -21.4297,-2.0586 -6.1548,-0.88025 -12.3906,-1.10187 -18.5235,-2.14648 -1.2879,-0.21933 -2.5654,-0.50164 -3.8476,-0.75196 -8.2934,-2.05254 -16.621,-3.96635 -24.9102,-6.03515 -6.0012,-1.52775 -11.9553,-3.25086 -17.72264,-5.51953 -3.32717,-1.30887 -3.70548,-1.54579 -6.90234,-3.04102 -6.38003,-3.06259 -11.5618,-7.86302 -16.67578,-12.64062 -3.3776,-3.01133 -6.33482,-6.41212 -8.94922,-10.09571 -0.89223,-1.507 -2.00323,-2.95493 -2.6582,-4.5957 -0.40314,-1.00973 -0.7099,-2.05614 -1.06446,-3.08398 -7.53197,-21.83757 31.79676,15.35171 22.59375,-5.83594 -1.44313,-3.32237 -0.27283,-0.53137 0.22266,0.10351 1.64909,2.39719 3.60737,4.52366 5.78515,6.45704 3.34138,3.1223 6.60863,6.44465 10.70118,8.58789 0.79232,0.37817 1.57524,0.77479 2.377,1.13281 5.7671,2.57542 11.8434,4.33341 17.9511,5.89258 7.9236,1.98329 15.8915,3.7856 23.8106,5.78906 0.8918,0.18278 1.7792,0.39107 2.6757,0.54883 6.0086,1.05741 12.144,1.17554 18.1719,2.09765 6.1529,0.80717 12.3071,1.73103 18.5235,1.86133 2.4989,0.0245 3.2569,0.074 5.7871,-0.0801 4.9307,-0.30022 9.8296,-0.99622 14.7265,-1.61523 3.2018,-0.42374 3.8123,-0.47201 6.9961,-1.02344 5.1465,-0.89133 10.2362,-2.08591 15.3907,-2.93359 1.235,-0.17543 2.4677,-0.36875 3.705,-0.52735 4.1026,-0.52563 8.28,-0.7006 12.2813,-1.83007 0.474,-0.16743 0.961,-0.30548 1.4238,-0.50196 3.5113,-1.49068 6.4513,-4.0649 9.4961,-6.29101 3.8396,-3.07315 7.4438,-6.00277 10.8418,-9.58203 0.8073,-0.85044 1.5926,-1.723 2.3887,-2.58399 3.3128,-3.78285 6.6099,-7.61472 9.0254,-12.05664 3.0234,-5.3264 5.8435,-10.76466 8.6211,-16.22266 1.4748,-2.86821 3.0377,-5.70598 4.4316,-8.61523 0.793,-1.6551 1.6535,-3.69163 2.3633,-5.36523 0.4477,-1.05556 0.8894,-2.11498 1.334,-3.17188 2.225,-5.27897 4.4768,-10.54704 6.539,-15.89258 1.5422,-3.82144 2.9049,-7.71667 3.8242,-11.74023 1.1952,-5.08934 2.3017,-10.22899 2.6993,-15.45117 0.01,-0.73411 0.063,-1.46994 0.025,-2.20313 -0.2751,-5.38507 -1.9049,-10.82808 -3.0977,-16.05859 -1.2947,-4.56255 -2.7174,-9.08817 -4.3203,-13.55274 -2.9482,-8.21123 -1.6603,-14.45604 1.5078,-17.8789 -7.4872,0.10673 -14.1996,1.03339 -7.3848,9.23242 0.051,0.0618 0.1952,0.20859 0.2129,0.24023 v 0.002 0.002 0.002 0 0 -0.002 c 0,-0.002 -0.01,-0.004 -0.014,-0.008 -0.7748,-0.51403 -1.4708,-1.13766 -2.2089,-1.70313 -1.7494,-1.34013 -3.5044,-2.66918 -5.2754,-3.98047 -4.8685,-3.63058 -9.7482,-7.25735 -14.3692,-11.20312 -1.0494,-0.89612 -2.0733,-1.82284 -3.1093,-2.73438 -2.9658,-2.65996 -5.7336,-5.52512 -8.4747,-8.41211 -1.9975,-2.1038 -2.7168,-2.83107 -4.6152,-5.13671 -0.7748,-0.94099 -1.5063,-1.9149 -2.2598,-2.87305 -2.3319,-2.9588 -4.2285,-6.18171 -5.496,-9.73828 -0.3645,-1.02264 -0.6813,-2.06887 -0.877,-3.13672 -0.233,-1.2712 -0.6708,-2.59047 -0.4063,-3.85547 0.1289,-0.61599 0.2936,-1.22255 0.4805,-1.82227 -3.1506,-1.83541 -6.3229,-3.63597 -9.5664,-5.30273 -2.6481,-1.36077 -5.2164,-2.57901 -7.8965,-3.87109 -8.4983,-4.2622 -17.6696,-6.90031 -26.7363,-9.64454 -6.4182,-1.84108 -12.8081,-3.85421 -19.3535,-5.21289 -1.5222,-0.31597 -3.0476,-0.63276 -4.5879,-0.84375 -1.5698,-0.21502 -3.1565,-0.28919 -4.7344,-0.43359 -9.6287,-0.41406 -19.3307,-0.21397 -28.8984,1.0332 -1.6297,0.21243 -3.246,0.51416 -4.8692,0.77149 -6.9454,1.34868 -13.9017,2.94699 -20.4531,5.67773 -1.0022,0.41773 -1.9735,0.90398 -2.9609,1.35547 -3.0886,1.56909 -6.1654,3.22636 -8.9121,5.35547 -0.9986,0.77403 -1.5248,1.30306 -2.4453,2.16016 -2.27864,2.10784 -3.9951,4.67328 -5.73833,7.21484 -1.99629,2.94893 -3.60946,6.13267 -5.21094,9.30664 -1.32633,2.70017 -2.61135,5.41927 -3.88085,8.14649 -0.75898,1.68541 -1.4478,3.40226 -2.0254,5.1582 -7.21811,21.94332 -29.56013,14.43056 -22.11718,-7.4375 0.87539,-2.57196 1.85286,-5.10809 2.99218,-7.57617 1.37613,-2.95031 2.76179,-5.89719 4.20313,-8.81641 2.07526,-4.10189 4.20168,-8.19367 6.80469,-11.99219 1.27065,-1.84822 2.52818,-3.71681 3.92382,-5.47461 1.63405,-2.05808 3.45642,-3.9522 5.3379,-5.7832 1.93216,-1.73783 2.49036,-2.3137 4.60742,-3.9043 4.00493,-3.00904 8.40928,-5.44283 12.89846,-7.64258 1.425,-0.63226 2.8319,-1.30749 4.2754,-1.89648 8.0631,-3.29009 16.577,-5.31061 25.1152,-6.9082 2.0118,-0.30775 4.0163,-0.66693 6.0352,-0.92383 5.5713,-0.70895 11.1824,-1.11757 16.8007,-1.27539 5.6184,-0.15782 11.2449,-0.065 16.8477,0.23242 2.2273,0.23736 4.4646,0.39361 6.6816,0.71289 1.8835,0.27124 3.7473,0.66685 5.6094,1.05859 7.0362,1.48023 13.9178,3.6123 20.8184,5.60547 10.2231,3.0984 20.5304,6.15186 30.1113,10.95899 3.0817,1.48749 5.6605,2.70896 8.7168,4.28711 5.4339,2.8059 10.7007,5.92156 15.9512,9.05273 1.3138,0.87396 2.6623,1.69902 3.9414,2.62305 1.4506,1.04793 2.8281,2.19712 4.1211,3.43359 0.8529,0.31477 1.7017,0.67986 2.5488,1.09766 1.4225,0.70162 2.6727,1.70723 4.0098,2.56055 3.5124,2.93868 7.3219,5.70649 10.1543,9.36132 2.1646,2.79331 2.5819,3.89164 4.164,6.91016 1.1843,2.66806 1.2887,2.78175 2.2637,5.41016 0.1413,0.38079 0.6927,2.05954 1.0801,3.02343 0.2933,0.27944 0.5741,0.56912 0.8379,0.87696 1.2416,1.44912 2.7097,2.87281 3.2753,4.69531 0.808,2.60249 0.562,5.41601 0.7813,8.13672 2.8564,2.11823 5.7053,4.2571 8.3945,6.58203 3.8327,3.3134 4.4796,5.11268 3.3106,6.08984 1.1198,0.70423 2.2158,1.6258 3.2519,2.77735 v -105.9375 z m 300.96096,103.32812 c 2.8341,-0.0962 5.6739,-0.083 8.5,0.17969 5.4906,0.55298 10.9548,1.38149 16.25,2.98633 6.487,2.00637 12.8927,4.29456 19.0644,7.14062 0.9872,0.5037 1.9835,0.98754 2.961,1.50977 3.4267,1.83074 6.6919,3.95786 9.957,6.05664 6.5391,4.20331 9.36,9.1862 9.4883,13.46484 4.2642,2.76883 6.7646,9.35639 4.0215,18.76563 -0.9844,3.37633 -2.1112,6.70416 -3.5938,9.90039 -1.2292,2.64057 -1.6443,3.69038 -3.1601,6.25976 -1.9595,3.32148 -4.4404,6.29899 -6.795,9.33789 -2.0032,2.37946 -2.6807,3.34028 -5.041,5.47461 -3.1705,2.86701 -6.869,5.01194 -10.4297,7.33789 -1.1148,0.75412 -4.0704,2.77097 -5.0898,3.36719 -3.9674,2.32064 -8.3114,3.76491 -12.6934,5.07813 -3.6729,0.97478 -4.4764,1.31412 -8.3086,1.80078 -6.0974,0.77421 -12.2481,0.42076 -18.3574,0.0293 -9.629,-0.61432 -19.4111,-1.38895 -28.3945,-5.21289 -1.4478,-0.7326 -2.9294,-1.40219 -4.3438,-2.19726 -1.3676,-0.76883 -2.69,-1.61792 -3.9941,-2.49024 -1.475,-0.98656 -2.9384,-1.99297 -4.3379,-3.08398 -3.305,-2.57645 -6.2494,-5.56739 -8.9297,-8.7793 -2.5033,-3.14425 -5.1518,-6.34596 -6.6035,-10.1582 -1.4764,-3.87791 -1.7042,-6.99699 -1.4219,-11.00586 0.1098,-0.92146 0.1952,-1.84555 0.3301,-2.76367 0.7512,-5.11121 2.142,-10.14491 4.2969,-14.84375 0.5053,-0.98012 0.9843,-1.97314 1.5156,-2.93945 0.7288,-1.32579 2.4388,-4.09476 3.2285,-5.33594 1.3472,-2.11745 2.7084,-4.20611 4.2637,-6.18164 0.5628,-0.71485 1.2098,-1.35929 1.8144,-2.03906 1.8904,-1.91657 3.7825,-3.85552 5.875,-5.55665 2.1069,-1.71279 2.2814,-1.76797 4.2247,-2.98632 0.5353,-0.33567 1.0716,-0.66887 1.6074,-1.00391 3.7657,-2.33896 7.6368,-4.51308 11.6601,-6.38086 0.8741,-0.38002 1.7389,-0.78471 2.6231,-1.14062 3.9957,-1.60838 8.191,-2.69488 12.3496,-3.7793 1.0457,-0.17905 2.0872,-0.39554 3.1387,-0.53711 0.8936,-0.12031 3.4673,-0.24438 4.3242,-0.27344 z m 0.5761,23.32617 c -0.046,0.002 -0.092,0.004 -0.1386,0.006 -1.1238,0.38589 -2.4527,0.66369 -3.9883,0.79492 -0.2619,0.0224 -0.5253,-0.009 -0.7891,-0.0371 -1.2667,0.35784 -2.5342,0.72083 -3.7871,1.12109 -1.1084,0.477 -2.1862,1.02691 -3.2636,1.57031 -0.2412,0.143 -0.4845,0.28177 -0.7227,0.42969 -0.404,0.25096 -1.3365,0.87191 -1.707,1.11719 -0.813,0.5382 -1.6309,1.06312 -2.418,1.63867 -1.3775,1.1692 -2.772,2.31766 -4.1582,3.47656 -1.596,1.35427 -3.1594,2.71469 -4.582,4.25195 -1.5178,1.72938 -3.0623,3.43552 -4.5098,5.22461 -1.676,2.24223 -3.6278,4.2497 -5.5117,6.3125 -0.5136,0.62165 -1.0732,1.20593 -1.6328,1.78907 -0.7363,2.37451 -1.197,4.83848 -1.4258,7.30859 0.024,-0.0474 0.044,-0.0743 0.059,-0.084 0.017,0.0275 0.019,0.12075 0.012,0.24804 0.1101,0.0916 0.2225,0.18248 0.334,0.27344 0.9208,0.75134 0.9874,0.78552 1.9433,1.50195 1.8595,1.41555 3.8172,2.70672 5.627,4.1875 0.3769,0.30833 0.739,0.63311 1.1094,0.94922 1.8988,1.67147 3.3719,3.73168 4.83,5.7832 0.142,0.0813 0.2842,0.16178 0.4278,0.24024 0.7688,0.41992 1.5871,0.7407 2.3808,1.11133 0.7768,0.2448 1.5418,0.52925 2.3301,0.73437 5.6074,1.45914 11.4749,1.76779 17.2305,2.12696 4.9062,0.26003 9.8612,0.74157 14.7539,0.0215 1.851,-0.27238 2.4586,-0.52179 4.1992,-1.04883 2.2279,-0.78553 4.5654,-1.33094 6.6856,-2.40234 0.521,-0.26327 1.7059,-1.15091 2.125,-1.43945 0.7087,-0.48794 1.426,-0.96506 2.1386,-1.44727 1.7282,-1.15978 3.5122,-2.23286 5.2442,-3.38672 1.4076,-0.93773 2.1639,-1.39721 3.291,-2.52148 0.6249,-0.62324 1.49,-1.76441 2.0117,-2.42383 1.0414,-1.38192 2.1532,-2.72383 3.1875,-4.11914 0.03,-0.13587 0.06,-0.27248 0.09,-0.40821 0.5112,-1.95521 0.6623,-3.93634 0.7071,-5.94726 0.041,-1.77932 -0.2716,-3.5382 -0.6582,-5.26758 -0.5258,-2.05124 -1.567,-3.92597 -2.5176,-5.80469 -0.7028,-1.34226 -1.4615,-2.66777 -2.3906,-3.86914 -0.4532,-0.58605 -0.8039,-0.93891 -1.3086,-1.48242 -0.6593,-0.67187 -1.3056,-1.36471 -2.0469,-1.94922 -0.7426,-0.58564 -1.5739,-1.05903 -2.3809,-1.54687 -0.094,-0.0582 -0.1886,-0.11635 -0.2832,-0.17383 -4.3227,-1.80389 -8.7484,-3.34454 -13.2246,-4.72266 -3.8034,-1.1255 -7.7229,-1.68439 -11.6601,-2.0625 -1.8599,-0.17005 -3.7282,-0.15028 -5.5918,-0.0742 z" />
    </clipPath>
    <clipPath
       clipPathUnits="userSpaceOnUse"
       id="clipPath89">
      <path
         id="path90"
         style="fill:#ff0000;fill-opacity:1;fill-rule:nonzero;stroke:none"
         d="M 771.74414,463.68555 V 834.19922 H 1213.1426 V 666.66211 c -0.4505,1.06768 -0.9015,2.13536 -1.3516,3.20312 -0.4425,1.05191 -0.8825,2.10368 -1.3281,3.1543 -0.7964,1.87751 -1.7379,4.10602 -2.6152,5.94922 -1.5527,3.26202 -3.2824,6.44188 -4.9336,9.6543 -2.9184,5.74438 -5.9015,11.45831 -9.0782,17.06445 -1.9089,3.33824 -4.0357,6.5588 -6.4101,9.58594 -1.9594,2.49798 -3.249,3.914 -5.3379,6.31054 -0.9366,1.01754 -1.8606,2.04755 -2.8106,3.05274 -2.0739,2.19449 -3.294,3.41241 -5.541,5.4375 -2.5332,2.28301 -5.2058,4.4054 -7.8652,6.53711 -4.2571,3.25702 -8.5634,6.58858 -13.459,8.85156 -1.1393,0.52666 -2.3217,0.9559 -3.4824,1.43359 -3.7277,1.32794 -7.6232,2.03634 -11.5332,2.55664 -2.4382,0.32448 -4.3012,0.44787 -6.7188,0.75782 -0.9971,0.12781 -1.9895,0.29084 -2.9843,0.43554 -4.8291,0.84429 -9.6115,1.93735 -14.4414,2.77735 -3.7853,0.6583 -4.3466,0.69593 -8.1719,1.21094 -5.2797,0.6718 -10.5634,1.4057 -15.8789,1.74023 -3.6208,0.2279 -4.2602,0.16912 -7.8535,0.16016 -7.191,-0.0997 -14.314,-1.12541 -21.4297,-2.0586 -6.1548,-0.88025 -12.3906,-1.10187 -18.5235,-2.14648 -1.2879,-0.21933 -2.5654,-0.50164 -3.8476,-0.75196 -8.2934,-2.05254 -16.621,-3.96635 -24.9102,-6.03515 -6.0012,-1.52775 -11.9553,-3.25086 -17.72264,-5.51953 -3.32717,-1.30887 -3.70548,-1.54579 -6.90234,-3.04102 -6.38003,-3.06259 -11.5618,-7.86302 -16.67578,-12.64062 -3.3776,-3.01133 -6.33482,-6.41212 -8.94922,-10.09571 -0.89223,-1.507 -2.00323,-2.95493 -2.6582,-4.5957 -0.40314,-1.00973 -0.7099,-2.05614 -1.06446,-3.08398 -7.53197,-21.83757 31.79676,15.35171 22.59375,-5.83594 -1.44313,-3.32237 -0.27283,-0.53137 0.22266,0.10351 1.64909,2.39719 3.60737,4.52366 5.78515,6.45704 3.34138,3.1223 6.60863,6.44465 10.70118,8.58789 0.79232,0.37817 1.57524,0.77479 2.377,1.13281 5.7671,2.57542 11.8434,4.33341 17.9511,5.89258 7.9236,1.98329 15.8915,3.7856 23.8106,5.78906 0.8918,0.18278 1.7792,0.39107 2.6757,0.54883 6.0086,1.05741 12.144,1.17554 18.1719,2.09765 6.1529,0.80717 12.3071,1.73103 18.5235,1.86133 2.4989,0.0245 3.2569,0.074 5.7871,-0.0801 4.9307,-0.30022 9.8296,-0.99622 14.7265,-1.61523 3.2018,-0.42374 3.8123,-0.47201 6.9961,-1.02344 5.1465,-0.89133 10.2362,-2.08591 15.3907,-2.93359 1.235,-0.17543 2.4677,-0.36875 3.705,-0.52735 4.1026,-0.52563 8.28,-0.7006 12.2813,-1.83007 0.474,-0.16743 0.961,-0.30548 1.4238,-0.50196 3.5113,-1.49068 6.4513,-4.0649 9.4961,-6.29101 3.8396,-3.07315 7.4438,-6.00277 10.8418,-9.58203 0.8073,-0.85044 1.5926,-1.723 2.3887,-2.58399 3.3128,-3.78285 6.6099,-7.61472 9.0254,-12.05664 3.0234,-5.3264 5.8435,-10.76466 8.6211,-16.22266 1.4748,-2.86821 3.0377,-5.70598 4.4316,-8.61523 0.793,-1.6551 1.6535,-3.69163 2.3633,-5.36523 0.4477,-1.05556 0.8894,-2.11498 1.334,-3.17188 2.225,-5.27897 4.4768,-10.54704 6.539,-15.89258 1.5422,-3.82144 2.9049,-7.71667 3.8242,-11.74023 1.1952,-5.08934 2.3017,-10.22899 2.6993,-15.45117 0.01,-0.73411 0.063,-1.46994 0.025,-2.20313 -0.2751,-5.38507 -1.9049,-10.82808 -3.0977,-16.05859 -1.2947,-4.56255 -2.7174,-9.08817 -4.3203,-13.55274 -2.9482,-8.21123 -1.6603,-14.45604 1.5078,-17.8789 -7.4872,0.10673 -14.1996,1.03339 -7.3848,9.23242 0.051,0.0618 0.1952,0.20859 0.2129,0.24023 v 0.002 0.002 0.002 0 0 -0.002 c 0,-0.002 -0.01,-0.004 -0.014,-0.008 -0.7748,-0.51403 -1.4708,-1.13766 -2.2089,-1.70313 -1.7494,-1.34013 -3.5044,-2.66918 -5.2754,-3.98047 -4.8685,-3.63058 -9.7482,-7.25735 -14.3692,-11.20312 -1.0494,-0.89612 -2.0733,-1.82284 -3.1093,-2.73438 -2.9658,-2.65996 -5.7336,-5.52512 -8.4747,-8.41211 -1.9975,-2.1038 -2.7168,-2.83107 -4.6152,-5.13671 -0.7748,-0.94099 -1.5063,-1.9149 -2.2598,-2.87305 -2.3319,-2.9588 -4.2285,-6.18171 -5.496,-9.73828 -0.3645,-1.02264 -0.6813,-2.06887 -0.877,-3.13672 -0.233,-1.2712 -0.6708,-2.59047 -0.4063,-3.85547 0.1289,-0.61599 0.2936,-1.22255 0.4805,-1.82227 -3.1506,-1.83541 -6.3229,-3.63597 -9.5664,-5.30273 -2.6481,-1.36077 -5.2164,-2.57901 -7.8965,-3.87109 -8.4983,-4.2622 -17.6696,-6.90031 -26.7363,-9.64454 -6.4182,-1.84108 -12.8081,-3.85421 -19.3535,-5.21289 -1.5222,-0.31597 -3.0476,-0.63276 -4.5879,-0.84375 -1.5698,-0.21502 -3.1565,-0.28919 -4.7344,-0.43359 -9.6287,-0.41406 -19.3307,-0.21397 -28.8984,1.0332 -1.6297,0.21243 -3.246,0.51416 -4.8692,0.77149 -6.9454,1.34868 -13.9017,2.94699 -20.4531,5.67773 -1.0022,0.41773 -1.9735,0.90398 -2.9609,1.35547 -3.0886,1.56909 -6.1654,3.22636 -8.9121,5.35547 -0.9986,0.77403 -1.5248,1.30306 -2.4453,2.16016 -2.27864,2.10784 -3.9951,4.67328 -5.73833,7.21484 -1.99629,2.94893 -3.60946,6.13267 -5.21094,9.30664 -1.32633,2.70017 -2.61135,5.41927 -3.88085,8.14649 -0.75898,1.68541 -1.4478,3.40226 -2.0254,5.1582 -7.21811,21.94332 -29.56013,14.43056 -22.11718,-7.4375 0.87539,-2.57196 1.85286,-5.10809 2.99218,-7.57617 1.37613,-2.95031 2.76179,-5.89719 4.20313,-8.81641 2.07526,-4.10189 4.20168,-8.19367 6.80469,-11.99219 1.27065,-1.84822 2.52818,-3.71681 3.92382,-5.47461 1.63405,-2.05808 3.45642,-3.9522 5.3379,-5.7832 1.93216,-1.73783 2.49036,-2.3137 4.60742,-3.9043 4.00493,-3.00904 8.40928,-5.44283 12.89846,-7.64258 1.425,-0.63226 2.8319,-1.30749 4.2754,-1.89648 8.0631,-3.29009 16.577,-5.31061 25.1152,-6.9082 2.0118,-0.30775 4.0163,-0.66693 6.0352,-0.92383 5.5713,-0.70895 11.1824,-1.11757 16.8007,-1.27539 5.6184,-0.15782 11.2449,-0.065 16.8477,0.23242 2.2273,0.23736 4.4646,0.39361 6.6816,0.71289 1.8835,0.27124 3.7473,0.66685 5.6094,1.05859 7.0362,1.48023 13.9178,3.6123 20.8184,5.60547 10.2231,3.0984 20.5304,6.15186 30.1113,10.95899 3.0817,1.48749 5.6605,2.70896 8.7168,4.28711 5.4339,2.8059 10.7007,5.92156 15.9512,9.05273 1.3138,0.87396 2.6623,1.69902 3.9414,2.62305 1.4506,1.04793 2.8281,2.19712 4.1211,3.43359 0.8529,0.31477 1.7017,0.67986 2.5488,1.09766 1.4225,0.70162 2.6727,1.70723 4.0098,2.56055 3.5124,2.93868 7.3219,5.70649 10.1543,9.36132 2.1646,2.79331 2.5819,3.89164 4.164,6.91016 1.1843,2.66806 1.2887,2.78175 2.2637,5.41016 0.1413,0.38079 0.6927,2.05954 1.0801,3.02343 0.2933,0.27944 0.5741,0.56912 0.8379,0.87696 1.2416,1.44912 2.7097,2.87281 3.2753,4.69531 0.808,2.60249 0.562,5.41601 0.7813,8.13672 2.8564,2.11823 5.7053,4.2571 8.3945,6.58203 3.8327,3.3134 4.4796,5.11268 3.3106,6.08984 1.1198,0.70423 2.2158,1.6258 3.2519,2.77735 v -105.9375 z m 300.96096,103.32812 c 2.8341,-0.0962 5.6739,-0.083 8.5,0.17969 5.4906,0.55298 10.9548,1.38149 16.25,2.98633 6.487,2.00637 12.8927,4.29456 19.0644,7.14062 0.9872,0.5037 1.9835,0.98754 2.961,1.50977 3.4267,1.83074 6.6919,3.95786 9.957,6.05664 6.5391,4.20331 9.36,9.1862 9.4883,13.46484 4.2642,2.76883 6.7646,9.35639 4.0215,18.76563 -0.9844,3.37633 -2.1112,6.70416 -3.5938,9.90039 -1.2292,2.64057 -1.6443,3.69038 -3.1601,6.25976 -1.9595,3.32148 -4.4404,6.29899 -6.795,9.33789 -2.0032,2.37946 -2.6807,3.34028 -5.041,5.47461 -3.1705,2.86701 -6.869,5.01194 -10.4297,7.33789 -1.1148,0.75412 -4.0704,2.77097 -5.0898,3.36719 -3.9674,2.32064 -8.3114,3.76491 -12.6934,5.07813 -3.6729,0.97478 -4.4764,1.31412 -8.3086,1.80078 -6.0974,0.77421 -12.2481,0.42076 -18.3574,0.0293 -9.629,-0.61432 -19.4111,-1.38895 -28.3945,-5.21289 -1.4478,-0.7326 -2.9294,-1.40219 -4.3438,-2.19726 -1.3676,-0.76883 -2.69,-1.61792 -3.9941,-2.49024 -1.475,-0.98656 -2.9384,-1.99297 -4.3379,-3.08398 -3.305,-2.57645 -6.2494,-5.56739 -8.9297,-8.7793 -2.5033,-3.14425 -5.1518,-6.34596 -6.6035,-10.1582 -1.4764,-3.87791 -1.7042,-6.99699 -1.4219,-11.00586 0.1098,-0.92146 0.1952,-1.84555 0.3301,-2.76367 0.7512,-5.11121 2.142,-10.14491 4.2969,-14.84375 0.5053,-0.98012 0.9843,-1.97314 1.5156,-2.93945 0.7288,-1.32579 2.4388,-4.09476 3.2285,-5.33594 1.3472,-2.11745 2.7084,-4.20611 4.2637,-6.18164 0.5628,-0.71485 1.2098,-1.35929 1.8144,-2.03906 1.8904,-1.91657 3.7825,-3.85552 5.875,-5.55665 2.1069,-1.71279 2.2814,-1.76797 4.2247,-2.98632 0.5353,-0.33567 1.0716,-0.66887 1.6074,-1.00391 3.7657,-2.33896 7.6368,-4.51308 11.6601,-6.38086 0.8741,-0.38002 1.7389,-0.78471 2.6231,-1.14062 3.9957,-1.60838 8.191,-2.69488 12.3496,-3.7793 1.0457,-0.17905 2.0872,-0.39554 3.1387,-0.53711 0.8936,-0.12031 3.4673,-0.24438 4.3242,-0.27344 z m 0.5761,23.32617 c -0.046,0.002 -0.092,0.004 -0.1386,0.006 -1.1238,0.38589 -2.4527,0.66369 -3.9883,0.79492 -0.2619,0.0224 -0.5253,-0.009 -0.7891,-0.0371 -1.2667,0.35784 -2.5342,0.72083 -3.7871,1.12109 -1.1084,0.477 -2.1862,1.02691 -3.2636,1.57031 -0.2412,0.143 -0.4845,0.28177 -0.7227,0.42969 -0.404,0.25096 -1.3365,0.87191 -1.707,1.11719 -0.813,0.5382 -1.6309,1.06312 -2.418,1.63867 -1.3775,1.1692 -2.772,2.31766 -4.1582,3.47656 -1.596,1.35427 -3.1594,2.71469 -4.582,4.25195 -1.5178,1.72938 -3.0623,3.43552 -4.5098,5.22461 -1.676,2.24223 -3.6278,4.2497 -5.5117,6.3125 -0.5136,0.62165 -1.0732,1.20593 -1.6328,1.78907 -0.7363,2.37451 -1.197,4.83848 -1.4258,7.30859 0.024,-0.0474 0.044,-0.0743 0.059,-0.084 0.017,0.0275 0.019,0.12075 0.012,0.24804 0.1101,0.0916 0.2225,0.18248 0.334,0.27344 0.9208,0.75134 0.9874,0.78552 1.9433,1.50195 1.8595,1.41555 3.8172,2.70672 5.627,4.1875 0.3769,0.30833 0.739,0.63311 1.1094,0.94922 1.8988,1.67147 3.3719,3.73168 4.83,5.7832 0.142,0.0813 0.2842,0.16178 0.4278,0.24024 0.7688,0.41992 1.5871,0.7407 2.3808,1.11133 0.7768,0.2448 1.5418,0.52925 2.3301,0.73437 5.6074,1.45914 11.4749,1.76779 17.2305,2.12696 4.9062,0.26003 9.8612,0.74157 14.7539,0.0215 1.851,-0.27238 2.4586,-0.52179 4.1992,-1.04883 2.2279,-0.78553 4.5654,-1.33094 6.6856,-2.40234 0.521,-0.26327 1.7059,-1.15091 2.125,-1.43945 0.7087,-0.48794 1.426,-0.96506 2.1386,-1.44727 1.7282,-1.15978 3.5122,-2.23286 5.2442,-3.38672 1.4076,-0.93773 2.1639,-1.39721 3.291,-2.52148 0.6249,-0.62324 1.49,-1.76441 2.0117,-2.42383 1.0414,-1.38192 2.1532,-2.72383 3.1875,-4.11914 0.03,-0.13587 0.06,-0.27248 0.09,-0.40821 0.5112,-1.95521 0.6623,-3.93634 0.7071,-5.94726 0.041,-1.77932 -0.2716,-3.5382 -0.6582,-5.26758 -0.5258,-2.05124 -1.567,-3.92597 -2.5176,-5.80469 -0.7028,-1.34226 -1.4615,-2.66777 -2.3906,-3.86914 -0.4532,-0.58605 -0.8039,-0.93891 -1.3086,-1.48242 -0.6593,-0.67187 -1.3056,-1.36471 -2.0469,-1.94922 -0.7426,-0.58564 -1.5739,-1.05903 -2.3809,-1.54687 -0.094,-0.0582 -0.1886,-0.11635 -0.2832,-0.17383 -4.3227,-1.80389 -8.7484,-3.34454 -13.2246,-4.72266 -3.8034,-1.1255 -7.7229,-1.68439 -11.6601,-2.0625 -1.8599,-0.17005 -3.7282,-0.15028 -5.5918,-0.0742 z" />
    </clipPath>
  </defs>
  <path
     d="m 1238,528 3,2 -8,9 -11,14 -13,16 -13,17 -14,17 -11,14 -13,16 -8,10 -12,16 -8,9 -9,12 -12,15 -10,13 -11,13 -7,9 -24,30 -10,13 -9,11 -11,14 -10,12 -10,13 -26,32 -22,28 -18,22 -13,17 -11,14 -10,12 -10,13 -5,6 -3,6 10,13 13,16 22,28 14,17 8,10 11,14 13,16 7,9 8,10 9,11 22,28 12,15 9,11 8,10 13,17 14,17 11,14 10,12 13,17 14,17 10,13 13,16 32,40 11,14 13,16 10,13 11,13 7,9 3,4 v 2 l -190,-1 -11,-14 -11,-13 -8,-11 -10,-12 -13,-17 -12,-14 -10,-13 -13,-16 -11,-14 -12,-15 -11,-14 -13,-16 -10,-13 -11,-13 -8,-10 -11,-15 -13,-15 -13,-17 -14,-17 -13,-16 -9,-12 -11,-13 -10,-13 -13,-16 -7,-9 -12,-15 -11,-14 -11,-13 -12,-16 -11,-13 -7,-9 -6,-7 -4,-7 6,-9 12,-14 13,-17 9,-11 13,-16 8,-10 9,-12 1.21745,-1.57836 L 772,878 l 7,-8 8,-11 9,-11 8,-10 2,-3 h 2 l 2,-4 10,-13 9,-11 7,-9 20,-25 11,-14 11,-13 10.21222,-13.78778 L 896,723 l 13,-17 10,-12 24,-30 12,-16 9,-10 10,-13 14,-18 11,-13 11,-14 13,-16 10,-13 14,-17 4,-5 z"
     fill="#049CE8"
     id="path3"
     style="display:inline;fill:#049ce8;fill-opacity:1;stroke:#049ce8;stroke-opacity:1" />
  <g
     id="g2"
     style="display:inline">
    <path
       id="path13"
       style="font-variation-settings:normal;display:inline;opacity:1;vector-effect:none;fill:#049ce8;fill-opacity:1;fill-rule:evenodd;stroke-width:1.04348;stroke-linecap:butt;stroke-linejoin:miter;stroke-miterlimit:4;stroke-dasharray:none;stroke-dashoffset:0;stroke-opacity:1;-inkscape-stroke:none;stop-color:#000000;stop-opacity:1"
       d="M 295.6543,752.47192 A 225.87682,223.75461 0 0 0 69.778442,976.22681 225.87682,223.75461 0 0 0 295.6543,1199.9817 225.87682,223.75461 0 0 0 521.53015,976.22681 225.87682,223.75461 0 0 0 295.6543,752.47192 Z m -9.51844,149.18213 a 68.127251,68.427376 0 0 1 62.56409,34.12171 l -58.99963,34.21325 65.8081,17.70935 a 68.127251,68.427376 0 0 1 -70.26367,50.57064 68.127251,68.427376 0 0 1 -63.08899,-59.35054 68.127251,68.427376 0 0 1 45.64514,-73.72742 68.127251,68.427376 0 0 1 18.33496,-3.53699 z" />
    <path
       id="path1"
       style="display:inline;fill:#049ce8;fill-opacity:1"
       d="m 742.99927,529.00085 -7.99866,10.00061 -13.00049,15.99732 -11.00158,14.00146 -12.99744,16.00037 -11.00159,13.99841 L 675,614.00146 l -22.00012,27.99988 -13.99842,16.99829 -10.00061,13.00049 -8.99963,10.99854 -11.00159,14.00146 -13.00048,16.00037 -8.99964,11.99951 -10.99853,13.00049 -11.00159,13.99841 -19.99817,25 -13.00049,16.00037 -11.00158,14.00146 -8.99964,10.99854 -10.00061,13.00049 -5.99975,7.00073 -10.00061,13.00049 -6.99769,7.99865 -6.65893,-4.75463 c -1.29839,2.6538 -3.0044,5.3967 -5.16358,8.19396 -1.32319,1.71421 -2.7484,3.29653 -3.86352,5.12391 -1.89013,2.73707 -3.84266,5.43176 -5.60913,8.25195 -1.27627,1.89637 -2.50409,3.8097 -3.39966,5.92651 -1.37421,2.72088 -2.69647,5.46503 -3.9856,8.22754 -1.40126,2.97371 -2.72732,5.9824 -4.0039,9.01184 -1.88341,4.40651 -3.80548,8.80014 -6.07605,13.02491 -2.42535,4.52619 -5.03625,8.94731 -7.95288,13.17749 -3.30776,4.47498 -6.74338,8.87848 -10.83069,12.68005 -3.2029,3.00341 -6.36946,6.03664 -9.27124,9.33838 -0.56935,0.62024 -1.40706,1.50107 -1.94702,2.18811 -1.65435,2.10493 -2.8515,4.53151 -4.40369,6.70776 -3.06721,4.88139 -6.09873,9.78526 -9.28039,14.59351 -3.41536,5.09123 -6.86975,10.15825 -10.495,15.10315 -2.22613,3.08853 -4.18713,5.92829 -5.45044,9.58252 -0.53236,1.41761 -1.15145,2.86052 -1.50452,4.3396 -0.40324,1.68921 -0.25381,3.43161 -0.19531,5.14831 0.32142,5.2998 0.54947,10.6008 0.44251,15.9119 -0.0838,4.1637 -0.60601,7.8839 -1.474,11.1633 3.53874,2.833 7.45679,5.1599 11.33423,7.4829 6.87029,3.5794 13.34712,7.8142 19.94629,11.853 3.53557,2.1638 7.1118,4.2622 10.65979,6.4057 2.43048,1.4274 4.78605,2.9627 7.08313,4.5776 2.40501,0.6409 4.92766,1.5362 7.55615,2.7161 1.53403,0.6886 3.06367,1.3879 4.56238,2.1515 1.45944,0.751 2.57876,1.4867 4.11987,1.9683 0.27618,0.08 0.55207,0.1541 0.82702,0.2381 0.0649,0.02 0.21757,0.053 0.27771,0.076 0.13125,0 0.27979,0.01 0.44556,0.015 4.31986,-0.14 8.66349,-0.2426 12.94556,0.47 1.24204,0.2551 2.50251,0.4338 3.72619,0.766 6.02993,1.6366 11.09789,4.8501 15.04822,9.6741 1.2121,1.5185 2.36504,3.0809 3.40576,4.7119 l 0.18311,-0.046 9.00268,11.9995 10.99854,13.9984 14.00146,17.0014 10.99854,14.0014 10.00061,11.9996 10.00061,13.0004 12.99744,15.9974 11.00158,14.0014 13.00049,16.0004 10.00061,13.0005 12.99744,16.0003 11.00159,13.9985 13.00048,16.0003 13.00049,17.0014 10.99854,12.9974 11.00158,14.0015 11.99952,14.9994 22.00012,27.9998 12.99744,16.0004 11.00158,14.0015 20.00122,25 h 189.99939 l -2.99988,-5.0019 -5.99975,-7.9986 -10.00061,-11.9995 L 901.9989,1375 882.00073,1350 875,1341.0004 860.99854,1323.999 850,1310.0006 842.00134,1300 l -11.00158,-14.0015 -13.00049,-15.9973 -10.99854,-14.0014 -14.00146,-16.9983 -22.00012,-28.003 -13.00049,-15.9973 -10.99854,-14.0014 -10.00061,-13.0005 -10.99853,-13.0005 -11.00159,-13.9984 -11.99951,-14.9994 -13.99842,-18.0023 -9.00268,-10.9986 -10.99854,-14.0014 -8.0017,-9.9976 -12.99744,-16.0004 -8.99964,-11.0016 -11.00158,-13.9984 -16.00037,-20.0012 -13.00049,-16.00035 -9.99756,-13.00049 -6.0028,-7.99866 -1.9989,-4.00085 4.00085,-4.99878 10.00061,-13.00049 10.99854,-13.99842 13.00048,-16.00036 10.99854,-14.00147 20.00122,-25 17.99927,-22.00012 11.00158,-13.99841 7.99866,-10.00061 11.99951,-16.00037 2.00196,-4.00085 h 1.9989 l 1.00097,-1.9989 5.99976,-7.00074 10.00061,-13.00048 5.99976,-6.99769 L 736.99951,775 l 5.99976,-7.00073 8.99963,-11.99951 5.99976,-7.00074 11.00158,-13.99841 4.00086,-5.00183 6.99768,-8.99963 8.00171,-10.00061 17.99927,-21.99708 L 817.00134,675 825,664.99939 l 10.99854,-13.99841 8.0017,-10.00061 10.99854,-14.00147 8.00171,-9.99756 8.99963,-11.00158 10.99854,-13.99842 12.00256,-15.00244 10.99854,-13.99841 13.00048,-16.00037 7.99866,-10.00061 5.99976,-7.99866 z" />
  </g>
  <g
     id="g1"
     style="display:inline">
    <path
       d="m 1300,606 4,4 10,13 9,11 14,17 13,17 13,16 20,25 11,14 13,16 10,13 13,16 8,10 11,14 32,40 11,14 9,11 4,1 42,-42 14,-11 11,-8 16,-9 14,-7 20,-8 24,-6 10,-2 h 63 l 24,6 13,4 20,8 15,8 14,9 14,11 13,11 4,3 v 2 l 4,2 11,14 12,17 12,21 10,25 6,20 2,14 1,15 1,1 1,14 -1,21 -1,2 -3,25 -7,24 -9,21 -14,24 -14,19 -12,13 -13,12 -19,14 -16,10 -19,9 -24,8 -22,5 -14,2 h -51 l -28,-7 -21,-7 -29,-14 -13,-9 -13,-10 -8,-7 -40,-40 h -4 l -2,4 -10,13 -10,12 -10,13 -11,14 -9,11 -12,15 -11,14 -9,11 -7,9 -9,11 -11,14 -8,10 -11,14 -11,13 -13,17 -9,11 -8,10 -9,11 -13,16 -4,5 -3.9508,4.1126 L 1298,1335 l -7,-8 -11,-14 -8,-10 -13,-16 -11,-14 -9,-11 -10,-13 -14,-17 -9,-12 -0.8382,-1.1676 L 1218,1203 l 13,-17 9,-11 13,-16 13,-17 10,-12 7,-9 11,-14 13,-16 11,-14 12,-15 11,-14 9,-11 12,-15 9,-11 11,-14 7,-9 10,-13 -1,-8 -9,-11 -10,-13 -13,-16 -11,-14 -9,-11 -12,-15 -9,-11 -10,-13 -9,-11 -11,-14 -12,-15 -11,-14 -9,-11 -12,-15 -11,-14 -9,-11 -13,-16 -7.9469,-9.57557 -4,-6 4.1752,-6.42443 4.7717,-7 6,-8 16,-20 14,-18 9,-11 13,-16 10,-13 12,-15 z m 381,306 -14,3 -9,4 -15,11 -32,32 -4,8 1,6 4,6 11,10 8,10 10,10 16,12 8,4 5,2 h 7 l 10,2 13,-2 6,-1 17,-9 11,-11 7,-11 5,-14 v -23 l -4,-13 -6,-11 -11,-12 -10,-6 -11,-5 -10,-2 z"
       fill="#049ce8"
       id="path2"
       style="display:inline"
       clip-path="url(#clipPath80)" />
    <path
       id="path13-9"
       style="font-variation-settings:normal;display:inline;vector-effect:none;fill:#049ce8;fill-opacity:1;fill-rule:evenodd;stroke-width:1.04348;stroke-linecap:butt;stroke-linejoin:miter;stroke-miterlimit:4;stroke-dasharray:none;stroke-dashoffset:0;stroke-opacity:1;-inkscape-stroke:none;stop-color:#000000"
       d="m 1688.0707,749.09668 a 225.87682,223.75461 0 0 0 -225.8789,223.75488 225.87682,223.75461 0 0 0 225.8789,223.75484 225.87682,223.75461 0 0 0 225.8758,-223.75484 225.87682,223.75461 0 0 0 -225.8758,-223.75488 z m 2.4048,155.42297 a 68.127251,68.427376 0 0 1 18.3319,3.53699 68.127251,68.427376 0 0 1 45.6451,73.72742 68.127251,68.427376 0 0 1 -63.089,59.35054 68.127251,68.427376 0 0 1 -70.2606,-50.57064 l 65.8051,-17.7124 -58.9997,-34.21325 a 68.127251,68.427376 0 0 1 62.5672,-34.11866 z" />
  </g>
  <path
     style="fill:none;stroke-width:0.271638"
     d="m 811.03244,829.92096 c -1.92356,-2.35306 -5.37564,-6.66191 -7.67127,-9.57523 -2.29563,-2.91331 -5.71623,-7.19161 -7.60132,-9.50732 -1.8851,-2.31571 -4.63682,-5.79109 -6.11494,-7.72309 -1.47812,-1.932 -4.76004,-6.02693 -7.29314,-9.09986 -6.35206,-7.70574 -10.86787,-13.75736 -10.59544,-14.19896 0.11951,-0.19374 2.00076,-2.5525 4.18054,-5.24171 2.17978,-2.68922 5.78848,-7.2731 8.01932,-10.18642 2.23084,-2.91331 7.04821,-8.96404 10.70527,-13.44606 3.65706,-4.48202 8.66233,-10.77722 11.12283,-13.98934 2.46049,-3.21212 5.6527,-7.24593 7.0938,-8.96404 1.4411,-1.71811 5.59518,-6.91318 9.23128,-11.5446 3.6361,-4.63143 8.69947,-10.99977 11.25195,-14.15188 2.55247,-3.15211 8.49132,-10.59444 13.19745,-16.53853 10.53486,-13.30611 12.54968,-15.82485 22.27428,-27.8453 10.61996,-13.12718 25.52253,-32.06906 26.45237,-33.62222 0.1134,-0.18942 0.0597,-1.50816 -0.11934,-2.93053 l -0.32552,-2.58614 -2.17496,-2.63804 c -1.19622,-1.45092 -3.83304,-4.77718 -5.85959,-7.3917 -2.02655,-2.61451 -5.21875,-6.6407 -7.09378,-8.94709 -1.87503,-2.30638 -5.85388,-7.27404 -8.84189,-11.03922 -2.98802,-3.76519 -8.91651,-11.14802 -13.17443,-16.4063 -4.25792,-5.25828 -9.88082,-12.28649 -12.49533,-15.61824 -2.61452,-3.33176 -6.41142,-8.11913 -8.43757,-10.6386 -2.02615,-2.51948 -6.78678,-8.49245 -10.57917,-13.27327 -9.52135,-12.00295 -14.49144,-18.22599 -18.87431,-23.63248 -2.05895,-2.53981 -5.95636,-7.42929 -8.66092,-10.8655 -4.58148,-5.82089 -14.19095,-17.68743 -21.22721,-26.21304 -1.66457,-2.01691 -3.54964,-4.44435 -4.18905,-5.39431 -1.05445,-1.56657 -1.13023,-1.78762 -0.8149,-2.37683 l 0.34767,-0.64963 h 59.98005 59.98005 l 1.51952,1.83356 c 1.53678,1.85438 6.2755,7.81532 12.39561,15.5927 1.84019,2.3385 5.98445,7.53357 9.20946,11.5446 5.61648,6.98537 31.7529,39.77709 37.76442,47.38066 6.28196,7.94561 6.85377,8.56161 8.28105,8.921 l 1.29669,0.32651 13.59947,-13.56509 c 14.23685,-14.20087 15.60864,-15.42156 25.39246,-22.59567 7.0514,-5.17046 18.6152,-11.34115 29.2693,-15.61859 5.6817,-2.28116 7.4054,-2.8335 14.0802,-4.51196 4.1832,-1.05193 9.0589,-2.20912 10.8349,-2.57155 l 3.2291,-0.65895 h 20.3427 20.3427 l 7.6396,1.91354 c 10.0152,2.50854 14.7884,4.01183 22.3619,7.04263 13.4008,5.36283 23.8034,11.93534 38.0039,24.01147 2.0453,1.7393 4.3851,3.6655 5.1996,4.28045 1.0602,0.80046 1.4809,1.30044 1.4809,1.75997 0,0.49312 0.2998,0.7938 1.2935,1.29736 2.6892,1.36272 13.9782,16.88918 19.9716,27.46818 3.3084,5.8396 4.0318,7.36893 6.9387,14.66843 5.8134,14.59807 7.7359,22.28029 8.4973,33.95471 0.202,3.09726 0.4442,5.03883 0.6608,5.29693 0.695,0.82843 1.0226,8.69545 0.6653,15.97855 -0.1809,3.68676 -0.4619,6.94767 -0.6245,7.24647 -0.1625,0.2988 -0.7404,4.21038 -1.2841,8.69241 l -0.9885,8.14913 -2.232,7.64684 c -1.8683,6.40091 -2.7053,8.74825 -5.1376,14.40661 -5.6548,13.15527 -15.3921,28.32006 -24.6284,38.35608 -10.9697,11.91953 -26.1241,23.15261 -40.3465,29.90648 -10.9756,5.21211 -26.9334,9.99347 -39.4806,11.82939 -4.4767,0.65505 -4.9369,0.66945 -21.3982,0.66945 h -16.823 l -8.2103,-2.04684 c -4.6956,-1.17063 -11.2337,-3.04427 -15.2729,-4.37679 -6.4215,-2.11845 -7.9133,-2.73825 -16.4341,-6.828 -10.333,-4.95953 -12.5672,-6.33738 -21.8668,-13.48549 -6.75206,-5.18993 -9.83798,-8.03928 -23.08805,-21.31803 l -11.9509,-11.97677 h -1.38599 c -1.367,0 -1.39309,0.0158 -1.90263,1.14881 -0.61606,1.36993 -5.54074,7.84872 -10.68955,14.0629 -2.04249,2.46511 -5.31298,6.56005 -7.26774,9.09986 -5.02321,6.52659 -8.44184,10.84144 -14.16082,17.87313 -2.73955,3.36839 -7.38455,9.17043 -10.32223,12.89342 -6.03284,7.64557 -12.43777,15.66716 -17.94495,22.47443 -2.05475,2.53981 -5.56857,6.94034 -7.8085,9.77895 -2.23993,2.83862 -6.24346,7.91145 -8.89673,11.27297 -2.65327,3.36151 -6.7655,8.43435 -9.13827,11.27296 -2.37278,2.83861 -6.30535,7.74792 -8.73904,10.90959 -2.43369,3.16168 -6.85447,8.75402 -9.82396,12.42743 l -5.39906,6.67894 h -17.61007 -17.61007 z m 274.76596,-170.25577 6.1078,-0.9576 5.4713,-2.88226 5.4714,-2.88226 3.3409,-3.29063 c 2.7519,-2.7105 3.7563,-3.93713 5.6974,-6.95774 2.0389,-3.17272 2.5864,-4.29958 4.0613,-8.35849 l 1.7046,-4.69138 v -7.21178 -7.21179 l -1.3368,-4.31925 c -2.0091,-6.49163 -4.1391,-10.22285 -8.6393,-15.13386 -3.1231,-3.40825 -3.7033,-3.9057 -6.652,-5.70415 -7.8502,-4.78788 -13.5839,-6.58631 -20.9987,-6.58631 -3.3889,0 -4.4375,0.11953 -8.4513,0.9634 -6.4832,1.36306 -8.9373,2.48479 -15.0403,6.87467 -4.4869,3.22744 -5.3304,3.99135 -15.0307,13.61351 l -10.277,10.19421 -1.4416,2.85634 -1.4416,2.85634 0.334,1.94701 c 0.4951,2.88638 1.8996,4.85579 6.4371,9.02601 2.1659,1.99057 4.7046,4.66206 6.0852,6.4035 3.9841,5.02526 7.8484,8.73281 13.7411,13.18361 5.1749,3.90858 7.8394,5.51165 11.9113,7.16618 1.3786,0.56019 2.1989,0.70469 4.0579,0.71482 1.3705,0.007 3.5605,0.2758 5.318,0.65161 1.6434,0.35141 3.0947,0.65129 3.2251,0.66641 0.1304,0.0151 2.9857,-0.40344 6.3449,-0.93012 z"
     id="path7"
     transform="scale(1.5625)"
     clip-path="url(#clipPath83)" />
  <path
     style="fill:none;stroke-width:0.271638"
     d="m 811.03244,829.92096 c -1.92356,-2.35306 -5.37564,-6.66191 -7.67127,-9.57523 -2.29563,-2.91331 -5.71623,-7.19161 -7.60132,-9.50732 -1.8851,-2.31571 -4.63682,-5.79109 -6.11494,-7.72309 -1.47812,-1.932 -4.76004,-6.02693 -7.29314,-9.09986 -6.35206,-7.70574 -10.86787,-13.75736 -10.59544,-14.19896 0.11951,-0.19374 2.00076,-2.5525 4.18054,-5.24171 2.17978,-2.68922 5.78848,-7.2731 8.01932,-10.18642 2.23084,-2.91331 7.04821,-8.96404 10.70527,-13.44606 3.65706,-4.48202 8.66233,-10.77722 11.12283,-13.98934 2.46049,-3.21212 5.6527,-7.24593 7.0938,-8.96404 1.4411,-1.71811 5.59518,-6.91318 9.23128,-11.5446 3.6361,-4.63143 8.69947,-10.99977 11.25195,-14.15188 2.55247,-3.15211 8.49132,-10.59444 13.19745,-16.53853 10.53486,-13.30611 12.54968,-15.82485 22.27428,-27.8453 10.61996,-13.12718 25.52253,-32.06906 26.45237,-33.62222 0.1134,-0.18942 0.0597,-1.50816 -0.11934,-2.93053 l -0.32552,-2.58614 -2.17496,-2.63804 c -1.19622,-1.45092 -3.83304,-4.77718 -5.85959,-7.3917 -2.02655,-2.61451 -5.21875,-6.6407 -7.09378,-8.94709 -1.87503,-2.30638 -5.85388,-7.27404 -8.84189,-11.03922 -2.98802,-3.76519 -8.91651,-11.14802 -13.17443,-16.4063 -4.25792,-5.25828 -9.88082,-12.28649 -12.49533,-15.61824 -2.61452,-3.33176 -6.41142,-8.11913 -8.43757,-10.6386 -2.02615,-2.51948 -6.78678,-8.49245 -10.57917,-13.27327 -9.52135,-12.00295 -14.49144,-18.22599 -18.87431,-23.63248 -2.05895,-2.53981 -5.95636,-7.42929 -8.66092,-10.8655 -4.58148,-5.82089 -14.19095,-17.68743 -21.22721,-26.21304 -1.66457,-2.01691 -3.54964,-4.44435 -4.18905,-5.39431 -1.05445,-1.56657 -1.13023,-1.78762 -0.8149,-2.37683 l 0.34767,-0.64963 h 59.98005 59.98005 l 1.51952,1.83356 c 1.53678,1.85438 6.2755,7.81532 12.39561,15.5927 1.84019,2.3385 5.98445,7.53357 9.20946,11.5446 5.61648,6.98537 31.7529,39.77709 37.76442,47.38066 6.28196,7.94561 6.85377,8.56161 8.28105,8.921 l 1.29669,0.32651 13.59947,-13.56509 c 14.23685,-14.20087 15.60864,-15.42156 25.39246,-22.59567 7.0514,-5.17046 18.6152,-11.34115 29.2693,-15.61859 5.6817,-2.28116 7.4054,-2.8335 14.0802,-4.51196 4.1832,-1.05193 9.0589,-2.20912 10.8349,-2.57155 l 3.2291,-0.65895 h 20.3427 20.3427 l 7.6396,1.91354 c 10.0152,2.50854 14.7884,4.01183 22.3619,7.04263 13.4008,5.36283 23.8034,11.93534 38.0039,24.01147 2.0453,1.7393 4.3851,3.6655 5.1996,4.28045 1.0602,0.80046 1.4809,1.30044 1.4809,1.75997 0,0.49312 0.2998,0.7938 1.2935,1.29736 2.6892,1.36272 13.9782,16.88918 19.9716,27.46818 3.3084,5.8396 4.0318,7.36893 6.9387,14.66843 5.8134,14.59807 7.7359,22.28029 8.4973,33.95471 0.202,3.09726 0.4442,5.03883 0.6608,5.29693 0.695,0.82843 1.0226,8.69545 0.6653,15.97855 -0.1809,3.68676 -0.4619,6.94767 -0.6245,7.24647 -0.1625,0.2988 -0.7404,4.21038 -1.2841,8.69241 l -0.9885,8.14913 -2.232,7.64684 c -1.8683,6.40091 -2.7053,8.74825 -5.1376,14.40661 -5.6548,13.15527 -15.3921,28.32006 -24.6284,38.35608 -10.9697,11.91953 -26.1241,23.15261 -40.3465,29.90648 -10.9756,5.21211 -26.9334,9.99347 -39.4806,11.82939 -4.4767,0.65505 -4.9369,0.66945 -21.3982,0.66945 h -16.823 l -8.2103,-2.04684 c -4.6956,-1.17063 -11.2337,-3.04427 -15.2729,-4.37679 -6.4215,-2.11845 -7.9133,-2.73825 -16.4341,-6.828 -10.333,-4.95953 -12.5672,-6.33738 -21.8668,-13.48549 -6.75206,-5.18993 -9.83798,-8.03928 -23.08805,-21.31803 l -11.9509,-11.97677 h -1.38599 c -1.367,0 -1.39309,0.0158 -1.90263,1.14881 -0.61606,1.36993 -5.54074,7.84872 -10.68955,14.0629 -2.04249,2.46511 -5.31298,6.56005 -7.26774,9.09986 -5.02321,6.52659 -8.44184,10.84144 -14.16082,17.87313 -2.73955,3.36839 -7.38455,9.17043 -10.32223,12.89342 -6.03284,7.64557 -12.43777,15.66716 -17.94495,22.47443 -2.05475,2.53981 -5.56857,6.94034 -7.8085,9.77895 -2.23993,2.83862 -6.24346,7.91145 -8.89673,11.27297 -2.65327,3.36151 -6.7655,8.43435 -9.13827,11.27296 -2.37278,2.83861 -6.30535,7.74792 -8.73904,10.90959 -2.43369,3.16168 -6.85447,8.75402 -9.82396,12.42743 l -5.39906,6.67894 h -17.61007 -17.61007 z m 274.76596,-170.25577 6.1078,-0.9576 5.4713,-2.88226 5.4714,-2.88226 3.3409,-3.29063 c 2.7519,-2.7105 3.7563,-3.93713 5.6974,-6.95774 2.0389,-3.17272 2.5864,-4.29958 4.0613,-8.35849 l 1.7046,-4.69138 v -7.21178 -7.21179 l -1.3368,-4.31925 c -2.0091,-6.49163 -4.1391,-10.22285 -8.6393,-15.13386 -3.1231,-3.40825 -3.7033,-3.9057 -6.652,-5.70415 -7.8502,-4.78788 -13.5839,-6.58631 -20.9987,-6.58631 -3.3889,0 -4.4375,0.11953 -8.4513,0.9634 -6.4832,1.36306 -8.9373,2.48479 -15.0403,6.87467 -4.4869,3.22744 -5.3304,3.99135 -15.0307,13.61351 l -10.277,10.19421 -1.4416,2.85634 -1.4416,2.85634 0.334,1.94701 c 0.4951,2.88638 1.8996,4.85579 6.4371,9.02601 2.1659,1.99057 4.7046,4.66206 6.0852,6.4035 3.9841,5.02526 7.8484,8.73281 13.7411,13.18361 5.1749,3.90858 7.8394,5.51165 11.9113,7.16618 1.3786,0.56019 2.1989,0.70469 4.0579,0.71482 1.3705,0.007 3.5605,0.2758 5.318,0.65161 1.6434,0.35141 3.0947,0.65129 3.2251,0.66641 0.1304,0.0151 2.9857,-0.40344 6.3449,-0.93012 z"
     id="path8"
     transform="scale(1.5625)"
     clip-path="url(#clipPath86)" />
  <path
     style="fill:none;stroke-width:0.271638"
     d="m 811.03244,829.92096 c -1.92356,-2.35306 -5.37564,-6.66191 -7.67127,-9.57523 -2.29563,-2.91331 -5.71623,-7.19161 -7.60132,-9.50732 -1.8851,-2.31571 -4.63682,-5.79109 -6.11494,-7.72309 -1.47812,-1.932 -4.76004,-6.02693 -7.29314,-9.09986 -6.35206,-7.70574 -10.86787,-13.75736 -10.59544,-14.19896 0.11951,-0.19374 2.00076,-2.5525 4.18054,-5.24171 2.17978,-2.68922 5.78848,-7.2731 8.01932,-10.18642 2.23084,-2.91331 7.04821,-8.96404 10.70527,-13.44606 3.65706,-4.48202 8.66233,-10.77722 11.12283,-13.98934 2.46049,-3.21212 5.6527,-7.24593 7.0938,-8.96404 1.4411,-1.71811 5.59518,-6.91318 9.23128,-11.5446 3.6361,-4.63143 8.69947,-10.99977 11.25195,-14.15188 2.55247,-3.15211 8.49132,-10.59444 13.19745,-16.53853 10.53486,-13.30611 12.54968,-15.82485 22.27428,-27.8453 10.61996,-13.12718 25.52253,-32.06906 26.45237,-33.62222 0.1134,-0.18942 0.0597,-1.50816 -0.11934,-2.93053 l -0.32552,-2.58614 -2.17496,-2.63804 c -1.19622,-1.45092 -3.83304,-4.77718 -5.85959,-7.3917 -2.02655,-2.61451 -5.21875,-6.6407 -7.09378,-8.94709 -1.87503,-2.30638 -5.85388,-7.27404 -8.84189,-11.03922 -2.98802,-3.76519 -8.91651,-11.14802 -13.17443,-16.4063 -4.25792,-5.25828 -9.88082,-12.28649 -12.49533,-15.61824 -2.61452,-3.33176 -6.41142,-8.11913 -8.43757,-10.6386 -2.02615,-2.51948 -6.78678,-8.49245 -10.57917,-13.27327 -9.52135,-12.00295 -14.49144,-18.22599 -18.87431,-23.63248 -2.05895,-2.53981 -5.95636,-7.42929 -8.66092,-10.8655 -4.58148,-5.82089 -14.19095,-17.68743 -21.22721,-26.21304 -1.66457,-2.01691 -3.54964,-4.44435 -4.18905,-5.39431 -1.05445,-1.56657 -1.13023,-1.78762 -0.8149,-2.37683 l 0.34767,-0.64963 h 59.98005 59.98005 l 1.51952,1.83356 c 1.53678,1.85438 6.2755,7.81532 12.39561,15.5927 1.84019,2.3385 5.98445,7.53357 9.20946,11.5446 5.61648,6.98537 31.7529,39.77709 37.76442,47.38066 6.28196,7.94561 6.85377,8.56161 8.28105,8.921 l 1.29669,0.32651 13.59947,-13.56509 c 14.23685,-14.20087 15.60864,-15.42156 25.39246,-22.59567 7.0514,-5.17046 18.6152,-11.34115 29.2693,-15.61859 5.6817,-2.28116 7.4054,-2.8335 14.0802,-4.51196 4.1832,-1.05193 9.0589,-2.20912 10.8349,-2.57155 l 3.2291,-0.65895 h 20.3427 20.3427 l 7.6396,1.91354 c 10.0152,2.50854 14.7884,4.01183 22.3619,7.04263 13.4008,5.36283 23.8034,11.93534 38.0039,24.01147 2.0453,1.7393 4.3851,3.6655 5.1996,4.28045 1.0602,0.80046 1.4809,1.30044 1.4809,1.75997 0,0.49312 0.2998,0.7938 1.2935,1.29736 2.6892,1.36272 13.9782,16.88918 19.9716,27.46818 3.3084,5.8396 4.0318,7.36893 6.9387,14.66843 5.8134,14.59807 7.7359,22.28029 8.4973,33.95471 0.202,3.09726 0.4442,5.03883 0.6608,5.29693 0.695,0.82843 1.0226,8.69545 0.6653,15.97855 -0.1809,3.68676 -0.4619,6.94767 -0.6245,7.24647 -0.1625,0.2988 -0.7404,4.21038 -1.2841,8.69241 l -0.9885,8.14913 -2.232,7.64684 c -1.8683,6.40091 -2.7053,8.74825 -5.1376,14.40661 -5.6548,13.15527 -15.3921,28.32006 -24.6284,38.35608 -10.9697,11.91953 -26.1241,23.15261 -40.3465,29.90648 -10.9756,5.21211 -26.9334,9.99347 -39.4806,11.82939 -4.4767,0.65505 -4.9369,0.66945 -21.3982,0.66945 h -16.823 l -8.2103,-2.04684 c -4.6956,-1.17063 -11.2337,-3.04427 -15.2729,-4.37679 -6.4215,-2.11845 -7.9133,-2.73825 -16.4341,-6.828 -10.333,-4.95953 -12.5672,-6.33738 -21.8668,-13.48549 -6.75206,-5.18993 -9.83798,-8.03928 -23.08805,-21.31803 l -11.9509,-11.97677 h -1.38599 c -1.367,0 -1.39309,0.0158 -1.90263,1.14881 -0.61606,1.36993 -5.54074,7.84872 -10.68955,14.0629 -2.04249,2.46511 -5.31298,6.56005 -7.26774,9.09986 -5.02321,6.52659 -8.44184,10.84144 -14.16082,17.87313 -2.73955,3.36839 -7.38455,9.17043 -10.32223,12.89342 -6.03284,7.64557 -12.43777,15.66716 -17.94495,22.47443 -2.05475,2.53981 -5.56857,6.94034 -7.8085,9.77895 -2.23993,2.83862 -6.24346,7.91145 -8.89673,11.27297 -2.65327,3.36151 -6.7655,8.43435 -9.13827,11.27296 -2.37278,2.83861 -6.30535,7.74792 -8.73904,10.90959 -2.43369,3.16168 -6.85447,8.75402 -9.82396,12.42743 l -5.39906,6.67894 h -17.61007 -17.61007 z m 274.76596,-170.25577 6.1078,-0.9576 5.4713,-2.88226 5.4714,-2.88226 3.3409,-3.29063 c 2.7519,-2.7105 3.7563,-3.93713 5.6974,-6.95774 2.0389,-3.17272 2.5864,-4.29958 4.0613,-8.35849 l 1.7046,-4.69138 v -7.21178 -7.21179 l -1.3368,-4.31925 c -2.0091,-6.49163 -4.1391,-10.22285 -8.6393,-15.13386 -3.1231,-3.40825 -3.7033,-3.9057 -6.652,-5.70415 -7.8502,-4.78788 -13.5839,-6.58631 -20.9987,-6.58631 -3.3889,0 -4.4375,0.11953 -8.4513,0.9634 -6.4832,1.36306 -8.9373,2.48479 -15.0403,6.87467 -4.4869,3.22744 -5.3304,3.99135 -15.0307,13.61351 l -10.277,10.19421 -1.4416,2.85634 -1.4416,2.85634 0.334,1.94701 c 0.4951,2.88638 1.8996,4.85579 6.4371,9.02601 2.1659,1.99057 4.7046,4.66206 6.0852,6.4035 3.9841,5.02526 7.8484,8.73281 13.7411,13.18361 5.1749,3.90858 7.8394,5.51165 11.9113,7.16618 1.3786,0.56019 2.1989,0.70469 4.0579,0.71482 1.3705,0.007 3.5605,0.2758 5.318,0.65161 1.6434,0.35141 3.0947,0.65129 3.2251,0.66641 0.1304,0.0151 2.9857,-0.40344 6.3449,-0.93012 z"
     id="path10"
     transform="scale(1.5625)"
     clip-path="url(#clipPath89)" />
</svg>
